  0
SECTION
  2
HEADER
  9
$ACADVER
  1
AC1008
  9
$INSBASE
 10
0.0
 20
0.0
 30
0.0
  9
$EXTMIN
 10
-2.0
 20
-2.0
 30
-0.295687
  9
$EXTMAX
 10
29.982103
 20
21.999152
 30
4.702168
  9
$LIMMIN
 10
0.0
 20
0.0
  9
$LIMMAX
 10
34.0
 20
23.0
  9
$ORTHOMODE
 70
     0
  9
$REGENMODE
 70
     1
  9
$FILLMODE
 70
     1
  9
$QTEXTMODE
 70
     0
  9
$MIRRTEXT
 70
     0
  9
$DRAGMODE
 70
     2
  9
$LTSCALE
 40
1.0
  9
$OSMODE
 70
     0
  9
$ATTMODE
 70
     1
  9
$TEXTSIZE
 40
1.562401
  9
$TRACEWID
 40
0.05
  9
$TEXTSTYLE
  7
STANDARD
  9
$CLAYER
  8
0
  9
$CELTYPE
  6
BYLAYER
  9
$CECOLOR
 62
   256
  9
$DIMSCALE
 40
1.0
  9
$DIMASZ
 40
0.18
  9
$DIMEXO
 40
0.0625
  9
$DIMDLI
 40
0.38
  9
$DIMRND
 40
0.0
  9
$DIMDLE
 40
0.0
  9
$DIMEXE
 40
0.18
  9
$DIMTP
 40
0.0
  9
$DIMTM
 40
0.0
  9
$DIMTXT
 40
0.18
  9
$DIMCEN
 40
0.09
  9
$DIMTSZ
 40
0.0
  9
$DIMTOL
 70
     0
  9
$DIMLIM
 70
     0
  9
$DIMTIH
 70
     1
  9
$DIMTOH
 70
     1
  9
$DIMSE1
 70
     0
  9
$DIMSE2
 70
     0
  9
$DIMTAD
 70
     0
  9
$DIMZIN
 70
     0
  9
$DIMBLK
  1

  9
$DIMASO
 70
     1
  9
$DIMSHO
 70
     0
  9
$DIMPOST
  1

  9
$DIMAPOST
  1

  9
$DIMALT
 70
     0
  9
$DIMALTD
 70
     2
  9
$DIMALTF
 40
25.4
  9
$DIMLFAC
 40
1.0
  9
$DIMTOFL
 70
     0
  9
$DIMTVP
 40
0.0
  9
$DIMTIX
 70
     0
  9
$DIMSOXD
 70
     0
  9
$DIMSAH
 70
     0
  9
$DIMBLK1
  1

  9
$DIMBLK2
  1

  9
$DIMSTYLE
  2
*UNNAMED
  9
$DIMCLRD
 70
     0
  9
$DIMCLRE
 70
     0
  9
$DIMCLRT
 70
     0
  9
$DIMTFAC
 40
1.0
  9
$DIMGAP
 40
0.09
  9
$LUNITS
 70
     2
  9
$LUPREC
 70
     0
  9
$AXISMODE
 70
     0
  9
$AXISUNIT
 10
0.0
 20
0.0
  9
$SKETCHINC
 40
0.1
  9
$FILLETRAD
 40
0.0
  9
$AUNITS
 70
     0
  9
$AUPREC
 70
     0
  9
$MENU
  1
acad
  9
$ELEVATION
 40
0.0
  9
$PELEVATION
 40
0.0
  9
$THICKNESS
 40
0.0
  9
$LIMCHECK
 70
     0
  9
$BLIPMODE
 70
     0
  9
$CHAMFERA
 40
0.0
  9
$CHAMFERB
 40
0.0
  9
$SKPOLY
 70
     0
  9
$TDCREATE
 40
2447319.644394676
  9
$TDUPDATE
 40
2447470.478782986
  9
$TDINDWG
 40
0.0545540509
  9
$TDUSRTIMER
 40
0.0545540509
  9
$USRTIMER
 70
     1
  9
$ANGBASE
 50
0.0
  9
$ANGDIR
 70
     0
  9
$PDMODE
 70
     1
  9
$PDSIZE
 40
0.0
  9
$PLINEWID
 40
0.0
  9
$COORDS
 70
     2
  9
$SPLFRAME
 70
     0
  9
$SPLINETYPE
 70
     6
  9
$SPLINESEGS
 70
     8
  9
$ATTDIA
 70
     0
  9
$ATTREQ
 70
     1
  9
$HANDLING
 70
     0
  9
$HANDSEED
  5
0
  9
$SURFTAB1
 70
    20
  9
$SURFTAB2
 70
     6
  9
$SURFTYPE
 70
     8
  9
$SURFU
 70
     6
  9
$SURFV
 70
     6
  9
$UCSNAME
  2

  9
$UCSORG
 10
0.0
 20
0.0
 30
0.0
  9
$UCSXDIR
 10
1.0
 20
0.0
 30
0.0
  9
$UCSYDIR
 10
0.0
 20
1.0
 30
0.0
  9
$PUCSNAME
  2

  9
$PUCSORG
 10
0.0
 20
0.0
 30
0.0
  9
$PUCSXDIR
 10
1.0
 20
0.0
 30
0.0
  9
$PUCSYDIR
 10
0.0
 20
1.0
 30
0.0
  9
$USERI1
 70
     0
  9
$USERI2
 70
     0
  9
$USERI3
 70
     0
  9
$USERI4
 70
     0
  9
$USERI5
 70
     0
  9
$USERR1
 40
0.0
  9
$USERR2
 40
0.0
  9
$USERR3
 40
0.0
  9
$USERR4
 40
0.0
  9
$USERR5
 40
0.0
  9
$WORLDVIEW
 70
     0
  9
$CYCLEKEEP
 70
     5
  9
$CYCLECURR
 70
     1
  9
$SHADEDGE
 70
     3
  9
$SHADEDIF
 70
    70
  9
$TILEMODE
 70
     1
  9
$MAXACTVP
 70
    16
  9
$PINSBASE
 10
0.0
 20
0.0
 30
0.0
  9
$PLIMCHECK
 70
     0
  9
$PEXTMIN
 10
1.000000E+20
 20
1.000000E+20
 30
1.000000E+20
  9
$PEXTMAX
 10
-1.000000E+20
 20
-1.000000E+20
 30
-1.000000E+20
  9
$PLIMMIN
 10
0.0
 20
0.0
  9
$PLIMMAX
 10
12.0
 20
12.0
  9
$UNITMODE
 70
     0
  0
ENDSEC
  0
SECTION
  2
TABLES
  0
TABLE
  2
VPORT
 70
     2
  0
VPORT
  2
*ACTIVE
 70
     0
 10
0.0
 20
0.0
 11
1.0
 21
1.0
 12
15.671372
 22
14.354238
 13
0.0
 23
0.0
 14
1.0
 24
1.0
 15
1.0
 25
1.0
 16
1.0
 26
1.2
 36
0.0
 17
0.0
 27
0.0
 37
0.0
 40
32.708476
 41
1.257541
 42
50.0
 43
0.0
 44
0.0
 50
0.0
 51
0.8
 71
     0
 72
   400
 73
     1
 74
     3
 75
     1
 76
     0
 77
     0
 78
     0
  0
ENDTAB
  0
TABLE
  2
LTYPE
 70
     1
  0
LTYPE
  2
CONTINUOUS
 70
    64
  3
Solid line
 72
    65
 73
     0
 40
0.0
  0
ENDTAB
  0
TABLE
  2
LAYER
 70
     4
  0
LAYER
  2
0
 70
    64
 62
     1
  6
CONTINUOUS
  0
LAYER
  2
WINGS
 70
    64
 62
     2
  6
CONTINUOUS
  0
LAYER
  2
BODY
 70
    64
 62
     3
  6
CONTINUOUS
  0
LAYER
  2
TAIL
 70
    64
 62
     4
  6
CONTINUOUS
  0
ENDTAB
  0
TABLE
  2
STYLE
 70
     1
  0
STYLE
  2
STANDARD
 70
     0
 40
0.0
 41
1.0
 50
0.0
 71
     0
 42
1.562401
  3
simplex
  4

  0
ENDTAB
  0
TABLE
  2
VIEW
 70
     0
  0
ENDTAB
  0
TABLE
  2
UCS
 70
     0
  0
ENDTAB
  0
TABLE
  2
APPID
 70
     1
  0
APPID
  2
ACAD
 70
    64
  0
ENDTAB
  0
TABLE
  2
DIMSTYLE
 70
     0
  0
ENDTAB
  0
ENDSEC
  0
SECTION
  2
BLOCKS
  0
BLOCK
  8
0
 62
     1
  2
HALF-PLANE
 70
    64
 10
0.0
 20
0.0
 30
0.0
  3
HALF-PLANE
  0
POLYLINE
  8
BODY
 66
     1
 10
0.0
 20
0.0
 30
0.0
 70
    16
 71
    11
 72
     7
  0
VERTEX
  8
BODY
 10
0.0
 20
13.0
 30
-0.207215
 70
    64
  0
VERTEX
  8
BODY
 10
0.0
 20
14.0
 30
0.046075
 70
    64
  0
VERTEX
  8
BODY
 10
0.0
 20
15.0
 30
0.268308
 70
    64
  0
VERTEX
  8
BODY
 10
0.0
 20
16.0
 30
0.59184
 70
    64
  0
VERTEX
  8
BODY
 10
0.0
 20
17.0
 30
1.406302
 70
    64
  0
VERTEX
  8
BODY
 10
0.0
 20
18.0
 30
1.815354
 70
    64
  0
VERTEX
  8
BODY
 10
0.0
 20
18.70018
 30
2.10769
 70
    64
  0
VERTEX
  8
BODY
 10
-0.4394
 20
13.0
 30
-0.13762
 70
    64
  0
VERTEX
  8
BODY
 10
-0.400265
 20
14.0
 30
0.109471
 70
    64
  0
VERTEX
  8
BODY
 10
-0.365928
 20
15.0
 30
0.326265
 70
    64
  0
VERTEX
  8
BODY
 10
-0.315939
 20
16.0
 30
0.64188
 70
    64
  0
VERTEX
  8
BODY
 10
-0.190098
 20
17.0
 30
1.436411
 70
    64
  0
VERTEX
  8
BODY
 10
-0.126896
 20
18.0
 30
1.835452
 70
    64
  0
VERTEX
  8
BODY
 10
-0.08171
 20
18.700052
 30
2.12075
 70
    64
  0
VERTEX
  8
BODY
 10
-0.835789
 20
13.0
 30
0.06435
 70
    64
  0
VERTEX
  8
BODY
 10
-0.761349
 20
14.0
 30
0.293452
 70
    64
  0
VERTEX
  8
BODY
 10
-0.696037
 20
15.0
 30
0.494464
 70
    64
  0
VERTEX
  8
BODY
 10
-0.600953
 20
16.0
 30
0.787102
 70
    64
  0
VERTEX
  8
BODY
 10
-0.361589
 20
17.0
 30
1.523789
 70
    64
  0
VERTEX
  8
BODY
 10
-0.241371
 20
18.0
 30
1.89378
 70
    64
  0
VERTEX
  8
BODY
 10
-0.155421
 20
18.700052
 30
2.158308
 70
    64
  0
VERTEX
  8
BODY
 10
-1.150365
 20
13.0
 30
0.378926
 70
    64
  0
VERTEX
  8
BODY
 10
-1.047908
 20
14.0
 30
0.580011
 70
    64
  0
VERTEX
  8
BODY
 10
-0.958013
 20
15.0
 30
0.75644
 70
    64
  0
VERTEX
  8
BODY
 10
-0.827141
 20
16.0
 30
1.01329
 70
    64
  0
VERTEX
  8
BODY
 10
-0.497684
 20
17.0
 30
1.659885
 70
    64
  0
VERTEX
  8
BODY
 10
-0.332219
 20
18.0
 30
1.984628
 70
    64
  0
VERTEX
  8
BODY
 10
-0.213919
 20
18.700052
 30
2.216805
 70
    64
  0
VERTEX
  8
BODY
 10
-1.352336
 20
13.0
 30
0.775315
 70
    64
  0
VERTEX
  8
BODY
 10
-1.231889
 20
14.0
 30
0.941095
 70
    64
  0
VERTEX
  8
BODY
 10
-1.126211
 20
15.0
 30
1.086548
 70
    64
  0
VERTEX
  8
BODY
 10
-0.972362
 20
16.0
 30
1.298303
 70
    64
  0
VERTEX
  8
BODY
 10
-0.585063
 20
17.0
 30
1.831375
 70
    64
  0
VERTEX
  8
BODY
 10
-0.390547
 20
18.0
 30
2.099103
 70
    64
  0
VERTEX
  8
BODY
 10
-0.251477
 20
18.700052
 30
2.290517
 70
    64
  0
VERTEX
  8
BODY
 10
-1.42193
 20
13.0
 30
1.214716
 70
    64
  0
VERTEX
  8
BODY
 10
-1.295285
 20
14.0
 30
1.34136
 70
    64
  0
VERTEX
  8
BODY
 10
-1.184169
 20
15.0
 30
1.452477
 70
    64
  0
VERTEX
  8
BODY
 10
-1.022402
 20
16.0
 30
1.614243
 70
    64
  0
VERTEX
  8
BODY
 10
-0.615172
 20
17.0
 30
2.021474
 70
    64
  0
VERTEX
  8
BODY
 10
-0.410646
 20
18.0
 30
2.226
 70
    64
  0
VERTEX
  8
BODY
 10
-0.264419
 20
18.700052
 30
2.372227
 70
    64
  0
VERTEX
  8
BODY
 10
-1.352336
 20
13.0
 30
1.654116
 70
    64
  0
VERTEX
  8
BODY
 10
-1.231889
 20
14.0
 30
1.741626
 70
    64
  0
VERTEX
  8
BODY
 10
-1.126211
 20
15.0
 30
1.818405
 70
    64
  0
VERTEX
  8
BODY
 10
-0.972362
 20
16.0
 30
1.930183
 70
    64
  0
VERTEX
  8
BODY
 10
-0.585063
 20
17.0
 30
2.211573
 70
    64
  0
VERTEX
  8
BODY
 10
-0.390547
 20
18.0
 30
2.352896
 70
    64
  0
VERTEX
  8
BODY
 10
-0.251477
 20
18.700052
 30
2.453937
 70
    64
  0
VERTEX
  8
BODY
 10
-1.150365
 20
13.0
 30
2.050505
 70
    64
  0
VERTEX
  8
BODY
 10
-1.047908
 20
14.0
 30
2.10271
 70
    64
  0
VERTEX
  8
BODY
 10
-0.958013
 20
15.0
 30
2.148514
 70
    64
  0
VERTEX
  8
BODY
 10
-0.827141
 20
16.0
 30
2.215196
 70
    64
  0
VERTEX
  8
BODY
 10
-0.497684
 20
17.0
 30
2.383063
 70
    64
  0
VERTEX
  8
BODY
 10
-0.332219
 20
18.0
 30
2.467371
 70
    64
  0
VERTEX
  8
BODY
 10
-0.213919
 20
18.700052
 30
2.527648
 70
    64
  0
VERTEX
  8
BODY
 10
-0.835789
 20
13.0
 30
2.365081
 70
    64
  0
VERTEX
  8
BODY
 10
-0.761349
 20
14.0
 30
2.389268
 70
    64
  0
VERTEX
  8
BODY
 10
-0.696037
 20
15.0
 30
2.41049
 70
    64
  0
VERTEX
  8
BODY
 10
-0.600953
 20
16.0
 30
2.441384
 70
    64
  0
VERTEX
  8
BODY
 10
-0.361589
 20
17.0
 30
2.519158
 70
    64
  0
VERTEX
  8
BODY
 10
-0.241371
 20
18.0
 30
2.558219
 70
    64
  0
VERTEX
  8
BODY
 10
-0.155421
 20
18.700052
 30
2.586146
 70
    64
  0
VERTEX
  8
BODY
 10
-0.4394
 20
13.0
 30
2.567052
 70
    64
  0
VERTEX
  8
BODY
 10
-0.400265
 20
14.0
 30
2.57325
 70
    64
  0
VERTEX
  8
BODY
 10
-0.365928
 20
15.0
 30
2.578688
 70
    64
  0
VERTEX
  8
BODY
 10
-0.315939
 20
16.0
 30
2.586606
 70
    64
  0
VERTEX
  8
BODY
 10
-0.190098
 20
17.0
 30
2.606537
 70
    64
  0
VERTEX
  8
BODY
 10
-0.126896
 20
18.0
 30
2.616547
 70
    64
  0
VERTEX
  8
BODY
 10
-0.08171
 20
18.700052
 30
2.623704
 70
    64
  0
VERTEX
  8
BODY
 10
0.0
 20
13.0
 30
2.636646
 70
    64
  0
VERTEX
  8
BODY
 10
0.0
 20
14.0
 30
2.636646
 70
    64
  0
VERTEX
  8
BODY
 10
0.0
 20
15.0
 30
2.636646
 70
    64
  0
VERTEX
  8
BODY
 10
0.0
 20
16.0
 30
2.636646
 70
    64
  0
VERTEX
  8
BODY
 10
0.0
 20
17.0
 30
2.636646
 70
    64
  0
VERTEX
  8
BODY
 10
0.0
 20
18.0
 30
2.636646
 70
    64
  0
VERTEX
  8
BODY
 10
0.0
 20
18.70018
 30
2.636764
 70
    64
  0
SEQEND
  8
BODY
  0
POLYLINE
  8
BODY
 66
     1
 10
0.0
 20
0.0
 30
0.0
 70
    16
 71
    11
 72
     4
  0
VERTEX
  8
BODY
 10
0.0
 20
-1.0
 30
0.284595
 70
    64
  0
VERTEX
  8
BODY
 10
0.0
 20
0.0
 30
0.0
 70
    64
  0
VERTEX
  8
BODY
 10
0.0
 20
1.0
 30
-0.160983
 70
    64
  0
VERTEX
  8
BODY
 10
0.0
 20
2.0
 30
-0.207215
 70
    64
  0
VERTEX
  8
BODY
 10
-0.17576
 20
-1.0
 30
0.312432
 70
    64
  0
VERTEX
  8
BODY
 10
-0.307262
 20
0.0
 30
0.048666
 70
    64
  0
VERTEX
  8
BODY
 10
-0.403971
 20
1.0
 30
-0.097
 70
    64
  0
VERTEX
  8
BODY
 10
-0.4394
 20
2.0
 30
-0.13762
 70
    64
  0
VERTEX
  8
BODY
 10
-0.334316
 20
-1.0
 30
0.39322
 70
    64
  0
VERTEX
  8
BODY
 10
-0.584447
 20
0.0
 30
0.189898
 70
    64
  0
VERTEX
  8
BODY
 10
-0.768399
 20
1.0
 30
0.088685
 70
    64
  0
VERTEX
  8
BODY
 10
-0.835789
 20
2.0
 30
0.06435
 70
    64
  0
VERTEX
  8
BODY
 10
-0.460146
 20
-1.0
 30
0.519051
 70
    64
  0
VERTEX
  8
BODY
 10
-0.804422
 20
0.0
 30
0.409874
 70
    64
  0
VERTEX
  8
BODY
 10
-1.057611
 20
1.0
 30
0.377897
 70
    64
  0
VERTEX
  8
BODY
 10
-1.150365
 20
2.0
 30
0.378926
 70
    64
  0
VERTEX
  8
BODY
 10
-0.540934
 20
-1.0
 30
0.677606
 70
    64
  0
VERTEX
  8
BODY
 10
-0.945655
 20
0.0
 30
0.687059
 70
    64
  0
VERTEX
  8
BODY
 10
-1.243296
 20
1.0
 30
0.742325
 70
    64
  0
VERTEX
  8
BODY
 10
-1.352336
 20
2.0
 30
0.775315
 70
    64
  0
VERTEX
  8
BODY
 10
-0.568772
 20
-1.0
 30
0.853367
 70
    64
  0
VERTEX
  8
BODY
 10
-0.99432
 20
0.0
 30
0.994321
 70
    64
  0
VERTEX
  8
BODY
 10
-1.307279
 20
1.0
 30
1.146296
 70
    64
  0
VERTEX
  8
BODY
 10
-1.42193
 20
2.0
 30
1.214716
 70
    64
  0
VERTEX
  8
BODY
 10
-0.540934
 20
-1.0
 30
1.029127
 70
    64
  0
VERTEX
  8
BODY
 10
-0.945655
 20
0.0
 30
1.301583
 70
    64
  0
VERTEX
  8
BODY
 10
-1.243296
 20
1.0
 30
1.550268
 70
    64
  0
VERTEX
  8
BODY
 10
-1.352336
 20
2.0
 30
1.654116
 70
    64
  0
VERTEX
  8
BODY
 10
-0.460146
 20
-1.0
 30
1.187683
 70
    64
  0
VERTEX
  8
BODY
 10
-0.804422
 20
0.0
 30
1.578768
 70
    64
  0
VERTEX
  8
BODY
 10
-1.057611
 20
1.0
 30
1.914696
 70
    64
  0
VERTEX
  8
BODY
 10
-1.150365
 20
2.0
 30
2.050505
 70
    64
  0
VERTEX
  8
BODY
 10
-0.334316
 20
-1.0
 30
1.313513
 70
    64
  0
VERTEX
  8
BODY
 10
-0.584447
 20
0.0
 30
1.798743
 70
    64
  0
VERTEX
  8
BODY
 10
-0.768399
 20
1.0
 30
2.203907
 70
    64
  0
VERTEX
  8
BODY
 10
-0.835789
 20
2.0
 30
2.365081
 70
    64
  0
VERTEX
  8
BODY
 10
-0.17576
 20
-1.0
 30
1.394301
 70
    64
  0
VERTEX
  8
BODY
 10
-0.307262
 20
0.0
 30
1.939976
 70
    64
  0
VERTEX
  8
BODY
 10
-0.403971
 20
1.0
 30
2.389593
 70
    64
  0
VERTEX
  8
BODY
 10
-0.4394
 20
2.0
 30
2.567052
 70
    64
  0
VERTEX
  8
BODY
 10
0.0
 20
-1.0
 30
1.422139
 70
    64
  0
VERTEX
  8
BODY
 10
0.0
 20
0.0
 30
1.988642
 70
    64
  0
VERTEX
  8
BODY
 10
0.0
 20
1.0
 30
2.453576
 70
    64
  0
VERTEX
  8
BODY
 10
0.0
 20
2.0
 30
2.636646
 70
    64
  0
SEQEND
  8
BODY
  0
POLYLINE
  8
BODY
 66
     1
 10
0.0
 20
0.0
 30
0.0
 70
    16
 71
    11
 72
     6
  0
VERTEX
  8
BODY
 10
0.0
 20
5.0
 30
-0.207215
 70
    64
  0
VERTEX
  8
BODY
 10
0.0
 20
6.0
 30
-0.295687
 70
    64
  0
VERTEX
  8
BODY
 10
0.0
 20
7.0
 30
-0.295687
 70
    64
  0
VERTEX
  8
BODY
 10
0.0
 20
8.0
 30
-0.295687
 70
    64
  0
VERTEX
  8
BODY
 10
0.0
 20
9.0
 30
-0.295687
 70
    64
  0
VERTEX
  8
BODY
 10
0.0
 20
10.0
 30
-0.207215
 70
    64
  0
VERTEX
  8
BODY
 10
-0.4394
 20
5.0
 30
-0.13762
 70
    64
  0
VERTEX
  8
BODY
 10
-0.519944
 20
6.0
 30
-0.287089
 70
    64
  0
VERTEX
  8
BODY
 10
-0.519944
 20
7.0
 30
-0.287089
 70
    64
  0
VERTEX
  8
BODY
 10
-0.519944
 20
8.0
 30
-0.287089
 70
    64
  0
VERTEX
  8
BODY
 10
-0.519944
 20
9.0
 30
-0.287089
 70
    64
  0
VERTEX
  8
BODY
 10
-0.4394
 20
10.0
 30
-0.13762
 70
    64
  0
VERTEX
  8
BODY
 10
-0.835789
 20
5.0
 30
0.06435
 70
    64
  0
VERTEX
  8
BODY
 10
-1.032015
 20
6.0
 30
-0.207575
 70
    64
  0
VERTEX
  8
BODY
 10
-1.032015
 20
7.0
 30
-0.207575
 70
    64
  0
VERTEX
  8
BODY
 10
-1.032015
 20
8.0
 30
-0.207575
 70
    64
  0
VERTEX
  8
BODY
 10
-1.032015
 20
9.0
 30
-0.207575
 70
    64
  0
VERTEX
  8
BODY
 10
-0.835789
 20
10.0
 30
0.06435
 70
    64
  0
VERTEX
  8
BODY
 10
-1.150365
 20
5.0
 30
0.378926
 70
    64
  0
VERTEX
  8
BODY
 10
-1.333675
 20
6.0
 30
0.1797
 70
    64
  0
VERTEX
  8
BODY
 10
-1.333675
 20
7.0
 30
0.1797
 70
    64
  0
VERTEX
  8
BODY
 10
-1.333675
 20
8.0
 30
0.1797
 70
    64
  0
VERTEX
  8
BODY
 10
-1.333675
 20
9.0
 30
0.1797
 70
    64
  0
VERTEX
  8
BODY
 10
-1.150365
 20
10.0
 30
0.378926
 70
    64
  0
VERTEX
  8
BODY
 10
-1.352336
 20
5.0
 30
0.775315
 70
    64
  0
VERTEX
  8
BODY
 10
-1.397193
 20
6.0
 30
0.695264
 70
    64
  0
VERTEX
  8
BODY
 10
-1.397193
 20
7.0
 30
0.695264
 70
    64
  0
VERTEX
  8
BODY
 10
-1.397193
 20
8.0
 30
0.695264
 70
    64
  0
VERTEX
  8
BODY
 10
-1.397193
 20
9.0
 30
0.695264
 70
    64
  0
VERTEX
  8
BODY
 10
-1.352336
 20
10.0
 30
0.775315
 70
    64
  0
VERTEX
  8
BODY
 10
-1.42193
 20
5.0
 30
1.214716
 70
    64
  0
VERTEX
  8
BODY
 10
-1.42193
 20
6.0
 30
1.214716
 70
    64
  0
VERTEX
  8
BODY
 10
-1.42193
 20
7.0
 30
1.214716
 70
    64
  0
VERTEX
  8
BODY
 10
-1.42193
 20
8.0
 30
1.214716
 70
    64
  0
VERTEX
  8
BODY
 10
-1.42193
 20
9.0
 30
1.214716
 70
    64
  0
VERTEX
  8
BODY
 10
-1.42193
 20
10.0
 30
1.214716
 70
    64
  0
VERTEX
  8
BODY
 10
-1.352336
 20
5.0
 30
1.654116
 70
    64
  0
VERTEX
  8
BODY
 10
-1.352336
 20
6.0
 30
1.654116
 70
    64
  0
VERTEX
  8
BODY
 10
-1.352336
 20
7.0
 30
1.654116
 70
    64
  0
VERTEX
  8
BODY
 10
-1.352336
 20
8.0
 30
1.654116
 70
    64
  0
VERTEX
  8
BODY
 10
-1.352336
 20
9.0
 30
1.654116
 70
    64
  0
VERTEX
  8
BODY
 10
-1.352336
 20
10.0
 30
1.654116
 70
    64
  0
VERTEX
  8
BODY
 10
-1.150365
 20
5.0
 30
2.050505
 70
    64
  0
VERTEX
  8
BODY
 10
-1.150365
 20
6.0
 30
2.050505
 70
    64
  0
VERTEX
  8
BODY
 10
-1.150365
 20
7.0
 30
2.050505
 70
    64
  0
VERTEX
  8
BODY
 10
-1.150365
 20
8.0
 30
2.050505
 70
    64
  0
VERTEX
  8
BODY
 10
-1.150365
 20
9.0
 30
2.050505
 70
    64
  0
VERTEX
  8
BODY
 10
-1.150365
 20
10.0
 30
2.050505
 70
    64
  0
VERTEX
  8
BODY
 10
-0.835789
 20
5.0
 30
2.365081
 70
    64
  0
VERTEX
  8
BODY
 10
-0.835789
 20
6.0
 30
2.365081
 70
    64
  0
VERTEX
  8
BODY
 10
-0.835789
 20
7.0
 30
2.365081
 70
    64
  0
VERTEX
  8
BODY
 10
-0.835789
 20
8.0
 30
2.365081
 70
    64
  0
VERTEX
  8
BODY
 10
-0.835789
 20
9.0
 30
2.365081
 70
    64
  0
VERTEX
  8
BODY
 10
-0.835789
 20
10.0
 30
2.365081
 70
    64
  0
VERTEX
  8
BODY
 10
-0.4394
 20
5.0
 30
2.567052
 70
    64
  0
VERTEX
  8
BODY
 10
-0.4394
 20
6.0
 30
2.567052
 70
    64
  0
VERTEX
  8
BODY
 10
-0.4394
 20
7.0
 30
2.567052
 70
    64
  0
VERTEX
  8
BODY
 10
-0.4394
 20
8.0
 30
2.567052
 70
    64
  0
VERTEX
  8
BODY
 10
-0.4394
 20
9.0
 30
2.567052
 70
    64
  0
VERTEX
  8
BODY
 10
-0.4394
 20
10.0
 30
2.567052
 70
    64
  0
VERTEX
  8
BODY
 10
0.0
 20
5.0
 30
2.636646
 70
    64
  0
VERTEX
  8
BODY
 10
0.0
 20
6.0
 30
2.636646
 70
    64
  0
VERTEX
  8
BODY
 10
0.0
 20
7.0
 30
2.636646
 70
    64
  0
VERTEX
  8
BODY
 10
0.0
 20
8.0
 30
2.636646
 70
    64
  0
VERTEX
  8
BODY
 10
0.0
 20
9.0
 30
2.636646
 70
    64
  0
VERTEX
  8
BODY
 10
0.0
 20
10.0
 30
2.636646
 70
    64
  0
SEQEND
  8
BODY
  0
POLYLINE
  8
BODY
 66
     1
 10
0.0
 20
0.0
 30
0.0
 70
    16
 71
    11
 72
     4
  0
VERTEX
  8
BODY
 10
0.0
 20
2.0
 30
-0.207215
 70
    64
  0
VERTEX
  8
BODY
 10
0.0
 20
3.0
 30
-0.207215
 70
    64
  0
VERTEX
  8
BODY
 10
0.0
 20
4.0
 30
-0.207215
 70
    64
  0
VERTEX
  8
BODY
 10
0.0
 20
5.0
 30
-0.207215
 70
    64
  0
VERTEX
  8
BODY
 10
-0.4394
 20
2.0
 30
-0.13762
 70
    64
  0
VERTEX
  8
BODY
 10
-0.4394
 20
3.0
 30
-0.13762
 70
    64
  0
VERTEX
  8
BODY
 10
-0.4394
 20
4.0
 30
-0.13762
 70
    64
  0
VERTEX
  8
BODY
 10
-0.4394
 20
5.0
 30
-0.13762
 70
    64
  0
VERTEX
  8
BODY
 10
-0.835789
 20
2.0
 30
0.06435
 70
    64
  0
VERTEX
  8
BODY
 10
-0.835789
 20
3.0
 30
0.06435
 70
    64
  0
VERTEX
  8
BODY
 10
-0.835789
 20
4.0
 30
0.06435
 70
    64
  0
VERTEX
  8
BODY
 10
-0.835789
 20
5.0
 30
0.06435
 70
    64
  0
VERTEX
  8
BODY
 10
-1.150365
 20
2.0
 30
0.378926
 70
    64
  0
VERTEX
  8
BODY
 10
-1.150365
 20
3.0
 30
0.378926
 70
    64
  0
VERTEX
  8
BODY
 10
-1.150365
 20
4.0
 30
0.378926
 70
    64
  0
VERTEX
  8
BODY
 10
-1.150365
 20
5.0
 30
0.378926
 70
    64
  0
VERTEX
  8
BODY
 10
-1.352336
 20
2.0
 30
0.775315
 70
    64
  0
VERTEX
  8
BODY
 10
-1.352336
 20
3.0
 30
0.775315
 70
    64
  0
VERTEX
  8
BODY
 10
-1.352336
 20
4.0
 30
0.775315
 70
    64
  0
VERTEX
  8
BODY
 10
-1.352336
 20
5.0
 30
0.775315
 70
    64
  0
VERTEX
  8
BODY
 10
-1.42193
 20
2.0
 30
1.214716
 70
    64
  0
VERTEX
  8
BODY
 10
-1.42193
 20
3.0
 30
1.214716
 70
    64
  0
VERTEX
  8
BODY
 10
-1.42193
 20
4.0
 30
1.214716
 70
    64
  0
VERTEX
  8
BODY
 10
-1.42193
 20
5.0
 30
1.214716
 70
    64
  0
VERTEX
  8
BODY
 10
-1.352336
 20
2.0
 30
1.654116
 70
    64
  0
VERTEX
  8
BODY
 10
-1.352336
 20
3.0
 30
1.654116
 70
    64
  0
VERTEX
  8
BODY
 10
-1.352336
 20
4.0
 30
1.654116
 70
    64
  0
VERTEX
  8
BODY
 10
-1.352336
 20
5.0
 30
1.654116
 70
    64
  0
VERTEX
  8
BODY
 10
-1.150365
 20
2.0
 30
2.050505
 70
    64
  0
VERTEX
  8
BODY
 10
-1.150365
 20
3.0
 30
2.050505
 70
    64
  0
VERTEX
  8
BODY
 10
-1.150365
 20
4.0
 30
2.050505
 70
    64
  0
VERTEX
  8
BODY
 10
-1.150365
 20
5.0
 30
2.050505
 70
    64
  0
VERTEX
  8
BODY
 10
-0.835789
 20
2.0
 30
2.365081
 70
    64
  0
VERTEX
  8
BODY
 10
-0.835789
 20
3.0
 30
2.365081
 70
    64
  0
VERTEX
  8
BODY
 10
-0.835789
 20
4.0
 30
2.365081
 70
    64
  0
VERTEX
  8
BODY
 10
-0.835789
 20
5.0
 30
2.365081
 70
    64
  0
VERTEX
  8
BODY
 10
-0.4394
 20
2.0
 30
2.567052
 70
    64
  0
VERTEX
  8
BODY
 10
-0.4394
 20
3.0
 30
2.567052
 70
    64
  0
VERTEX
  8
BODY
 10
-0.4394
 20
4.0
 30
2.567052
 70
    64
  0
VERTEX
  8
BODY
 10
-0.4394
 20
5.0
 30
2.567052
 70
    64
  0
VERTEX
  8
BODY
 10
0.0
 20
2.0
 30
2.636646
 70
    64
  0
VERTEX
  8
BODY
 10
0.0
 20
3.0
 30
2.636646
 70
    64
  0
VERTEX
  8
BODY
 10
0.0
 20
4.0
 30
2.636646
 70
    64
  0
VERTEX
  8
BODY
 10
0.0
 20
5.0
 30
2.636646
 70
    64
  0
SEQEND
  8
BODY
  0
POLYLINE
  8
BODY
 66
     1
 10
0.0
 20
0.0
 30
0.0
 70
    16
 71
    11
 72
     4
  0
VERTEX
  8
BODY
 10
0.0
 20
10.0
 30
-0.207215
 70
    64
  0
VERTEX
  8
BODY
 10
0.0
 20
11.0
 30
-0.207215
 70
    64
  0
VERTEX
  8
BODY
 10
0.0
 20
12.0
 30
-0.207215
 70
    64
  0
VERTEX
  8
BODY
 10
0.0
 20
13.0
 30
-0.207215
 70
    64
  0
VERTEX
  8
BODY
 10
-0.4394
 20
10.0
 30
-0.13762
 70
    64
  0
VERTEX
  8
BODY
 10
-0.4394
 20
11.0
 30
-0.13762
 70
    64
  0
VERTEX
  8
BODY
 10
-0.4394
 20
12.0
 30
-0.13762
 70
    64
  0
VERTEX
  8
BODY
 10
-0.4394
 20
13.0
 30
-0.13762
 70
    64
  0
VERTEX
  8
BODY
 10
-0.835789
 20
10.0
 30
0.06435
 70
    64
  0
VERTEX
  8
BODY
 10
-0.835789
 20
11.0
 30
0.06435
 70
    64
  0
VERTEX
  8
BODY
 10
-0.835789
 20
12.0
 30
0.06435
 70
    64
  0
VERTEX
  8
BODY
 10
-0.835789
 20
13.0
 30
0.06435
 70
    64
  0
VERTEX
  8
BODY
 10
-1.150365
 20
10.0
 30
0.378926
 70
    64
  0
VERTEX
  8
BODY
 10
-1.150365
 20
11.0
 30
0.378926
 70
    64
  0
VERTEX
  8
BODY
 10
-1.150365
 20
12.0
 30
0.378926
 70
    64
  0
VERTEX
  8
BODY
 10
-1.150365
 20
13.0
 30
0.378926
 70
    64
  0
VERTEX
  8
BODY
 10
-1.352336
 20
10.0
 30
0.775315
 70
    64
  0
VERTEX
  8
BODY
 10
-1.352336
 20
11.0
 30
0.775315
 70
    64
  0
VERTEX
  8
BODY
 10
-1.352336
 20
12.0
 30
0.775315
 70
    64
  0
VERTEX
  8
BODY
 10
-1.352336
 20
13.0
 30
0.775315
 70
    64
  0
VERTEX
  8
BODY
 10
-1.42193
 20
10.0
 30
1.214716
 70
    64
  0
VERTEX
  8
BODY
 10
-1.42193
 20
11.0
 30
1.214716
 70
    64
  0
VERTEX
  8
BODY
 10
-1.42193
 20
12.0
 30
1.214716
 70
    64
  0
VERTEX
  8
BODY
 10
-1.42193
 20
13.0
 30
1.214716
 70
    64
  0
VERTEX
  8
BODY
 10
-1.352336
 20
10.0
 30
1.654116
 70
    64
  0
VERTEX
  8
BODY
 10
-1.352336
 20
11.0
 30
1.654116
 70
    64
  0
VERTEX
  8
BODY
 10
-1.352336
 20
12.0
 30
1.654116
 70
    64
  0
VERTEX
  8
BODY
 10
-1.352336
 20
13.0
 30
1.654116
 70
    64
  0
VERTEX
  8
BODY
 10
-1.150365
 20
10.0
 30
2.050505
 70
    64
  0
VERTEX
  8
BODY
 10
-1.150365
 20
11.0
 30
2.050505
 70
    64
  0
VERTEX
  8
BODY
 10
-1.150365
 20
12.0
 30
2.050505
 70
    64
  0
VERTEX
  8
BODY
 10
-1.150365
 20
13.0
 30
2.050505
 70
    64
  0
VERTEX
  8
BODY
 10
-0.835789
 20
10.0
 30
2.365081
 70
    64
  0
VERTEX
  8
BODY
 10
-0.835789
 20
11.0
 30
2.365081
 70
    64
  0
VERTEX
  8
BODY
 10
-0.835789
 20
12.0
 30
2.365081
 70
    64
  0
VERTEX
  8
BODY
 10
-0.835789
 20
13.0
 30
2.365081
 70
    64
  0
VERTEX
  8
BODY
 10
-0.4394
 20
10.0
 30
2.567052
 70
    64
  0
VERTEX
  8
BODY
 10
-0.4394
 20
11.0
 30
2.567052
 70
    64
  0
VERTEX
  8
BODY
 10
-0.4394
 20
12.0
 30
2.567052
 70
    64
  0
VERTEX
  8
BODY
 10
-0.4394
 20
13.0
 30
2.567052
 70
    64
  0
VERTEX
  8
BODY
 10
0.0
 20
10.0
 30
2.636646
 70
    64
  0
VERTEX
  8
BODY
 10
0.0
 20
11.0
 30
2.636646
 70
    64
  0
VERTEX
  8
BODY
 10
0.0
 20
12.0
 30
2.636646
 70
    64
  0
VERTEX
  8
BODY
 10
0.0
 20
13.0
 30
2.636646
 70
    64
  0
SEQEND
  8
BODY
  0
POLYLINE
  8
TAIL
 66
     1
 10
0.0
 20
0.0
 30
0.0
 70
    16
 71
     5
 72
    11
  0
VERTEX
  8
TAIL
 10
-0.003983
 20
18.701679
 30
2.632923
 70
    64
  0
VERTEX
  8
TAIL
 10
-0.022677
 20
18.519597
 30
2.632923
 70
    64
  0
VERTEX
  8
TAIL
 10
-0.041371
 20
18.337515
 30
2.632923
 70
    64
  0
VERTEX
  8
TAIL
 10
-0.058357
 20
18.155281
 30
2.632923
 70
    64
  0
VERTEX
  8
TAIL
 10
-0.072123
 20
17.972761
 30
2.632923
 70
    64
  0
VERTEX
  8
TAIL
 10
-0.08472
 20
17.790172
 30
2.632923
 70
    64
  0
VERTEX
  8
TAIL
 10
-0.09216
 20
17.607284
 30
2.632923
 70
    64
  0
VERTEX
  8
TAIL
 10
-0.095591
 20
17.424327
 30
2.632923
 70
    64
  0
VERTEX
  8
TAIL
 10
-0.092537
 20
17.241369
 30
2.632923
 70
    64
  0
VERTEX
  8
TAIL
 10
-0.074967
 20
17.059358
 30
2.632923
 70
    64
  0
VERTEX
  8
TAIL
 10
-0.003983
 20
16.89919
 30
2.632923
 70
    64
  0
VERTEX
  8
TAIL
 10
-0.007505
 20
18.992888
 30
3.070297
 70
    64
  0
VERTEX
  8
TAIL
 10
-0.024109
 20
18.831167
 30
3.070297
 70
    64
  0
VERTEX
  8
TAIL
 10
-0.040713
 20
18.669447
 30
3.070297
 70
    64
  0
VERTEX
  8
TAIL
 10
-0.055799
 20
18.507591
 30
3.070297
 70
    64
  0
VERTEX
  8
TAIL
 10
-0.068026
 20
18.345481
 30
3.070297
 70
    64
  0
VERTEX
  8
TAIL
 10
-0.079214
 20
18.18331
 30
3.070297
 70
    64
  0
VERTEX
  8
TAIL
 10
-0.085823
 20
18.020874
 30
3.070297
 70
    64
  0
VERTEX
  8
TAIL
 10
-0.08887
 20
17.858376
 30
3.070297
 70
    64
  0
VERTEX
  8
TAIL
 10
-0.086157
 20
17.695877
 30
3.070297
 70
    64
  0
VERTEX
  8
TAIL
 10
-0.070552
 20
17.53422
 30
3.070297
 70
    64
  0
VERTEX
  8
TAIL
 10
-0.007505
 20
17.391962
 30
3.070297
 70
    64
  0
VERTEX
  8
TAIL
 10
-0.014023
 20
19.367085
 30
3.691564
 70
    64
  0
VERTEX
  8
TAIL
 10
-0.027485
 20
19.235963
 30
3.691564
 70
    64
  0
VERTEX
  8
TAIL
 10
-0.040947
 20
19.104841
 30
3.691564
 70
    64
  0
VERTEX
  8
TAIL
 10
-0.053179
 20
18.973609
 30
3.691564
 70
    64
  0
VERTEX
  8
TAIL
 10
-0.063092
 20
18.842172
 30
3.691564
 70
    64
  0
VERTEX
  8
TAIL
 10
-0.072164
 20
18.710685
 30
3.691564
 70
    64
  0
VERTEX
  8
TAIL
 10
-0.077522
 20
18.578983
 30
3.691564
 70
    64
  0
VERTEX
  8
TAIL
 10
-0.079993
 20
18.44723
 30
3.691564
 70
    64
  0
VERTEX
  8
TAIL
 10
-0.077793
 20
18.315478
 30
3.691564
 70
    64
  0
VERTEX
  8
TAIL
 10
-0.065141
 20
18.184407
 30
3.691564
 70
    64
  0
VERTEX
  8
TAIL
 10
-0.014023
 20
18.069066
 30
3.691564
 70
    64
  0
VERTEX
  8
TAIL
 10
-0.004666
 20
19.713698
 30
4.183113
 70
    64
  0
VERTEX
  8
TAIL
 10
-0.015505
 20
19.608126
 30
4.183113
 70
    64
  0
VERTEX
  8
TAIL
 10
-0.026344
 20
19.502554
 30
4.183113
 70
    64
  0
VERTEX
  8
TAIL
 10
-0.036192
 20
19.396894
 30
4.183113
 70
    64
  0
VERTEX
  8
TAIL
 10
-0.044174
 20
19.291068
 30
4.183113
 70
    64
  0
VERTEX
  8
TAIL
 10
-0.051478
 20
19.185202
 30
4.183113
 70
    64
  0
VERTEX
  8
TAIL
 10
-0.055791
 20
19.079163
 30
4.183113
 70
    64
  0
VERTEX
  8
TAIL
 10
-0.057781
 20
18.973084
 30
4.183113
 70
    64
  0
VERTEX
  8
TAIL
 10
-0.05601
 20
18.867004
 30
4.183113
 70
    64
  0
VERTEX
  8
TAIL
 10
-0.045823
 20
18.761473
 30
4.183113
 70
    64
  0
VERTEX
  8
TAIL
 10
-0.004666
 20
18.668607
 30
4.183113
 70
    64
  0
VERTEX
  8
TAIL
 10
-0.015589
 20
20.074316
 30
4.702168
 70
    64
  0
VERTEX
  8
TAIL
 10
-0.007182
 20
19.992432
 30
4.702168
 70
    64
  0
VERTEX
  8
TAIL
 10
-0.032403
 20
19.910547
 30
4.702168
 70
    64
  0
VERTEX
  8
TAIL
 10
-0.040042
 20
19.828594
 30
4.702168
 70
    64
  0
VERTEX
  8
TAIL
 10
-0.046232
 20
19.746512
 30
4.702168
 70
    64
  0
VERTEX
  8
TAIL
 10
-0.051897
 20
19.6644
 30
4.702168
 70
    64
  0
VERTEX
  8
TAIL
 10
-0.055243
 20
19.582153
 30
4.702168
 70
    64
  0
VERTEX
  8
TAIL
 10
-0.056786
 20
19.499874
 30
4.702168
 70
    64
  0
VERTEX
  8
TAIL
 10
-0.055413
 20
19.417596
 30
4.702168
 70
    64
  0
VERTEX
  8
TAIL
 10
-0.047511
 20
19.335743
 30
4.702168
 70
    64
  0
VERTEX
  8
TAIL
 10
-0.015589
 20
19.263714
 30
4.702168
 70
    64
  0
SEQEND
  8
TAIL
  0
POLYLINE
  8
WINGS
 66
     1
 10
0.0
 20
0.0
 30
0.0
 70
    16
 71
     5
 72
    11
  0
VERTEX
  8
WINGS
 10
-3.438965
 20
18.346199
 30
2.769416
 70
    64
  0
VERTEX
  8
WINGS
 10
-3.442918
 20
18.49624
 30
2.758428
 70
    64
  0
VERTEX
  8
WINGS
 10
-3.434022
 20
18.59278
 30
2.758428
 70
    64
  0
VERTEX
  8
WINGS
 10
-3.41684
 20
18.688234
 30
2.758428
 70
    64
  0
VERTEX
  8
WINGS
 10
-3.395579
 20
18.782874
 30
2.758428
 70
    64
  0
VERTEX
  8
WINGS
 10
-3.371909
 20
18.876942
 30
2.758428
 70
    64
  0
VERTEX
  8
WINGS
 10
-3.34597
 20
18.970411
 30
2.758428
 70
    64
  0
VERTEX
  8
WINGS
 10
-3.318366
 20
19.063402
 30
2.758428
 70
    64
  0
VERTEX
  8
WINGS
 10
-3.289297
 20
19.155947
 30
2.758428
 70
    64
  0
VERTEX
  8
WINGS
 10
-3.25926
 20
19.248183
 30
2.758428
 70
    64
  0
VERTEX
  8
WINGS
 10
-3.228475
 20
19.340171
 30
2.758428
 70
    64
  0
VERTEX
  8
WINGS
 10
-3.438965
 20
18.346199
 30
2.769416
 70
    64
  0
VERTEX
  8
WINGS
 10
-3.418917
 20
18.438266
 30
2.810578
 70
    64
  0
VERTEX
  8
WINGS
 10
-3.397117
 20
18.538378
 30
2.831595
 70
    64
  0
VERTEX
  8
WINGS
 10
-3.375018
 20
18.639864
 30
2.843961
 70
    64
  0
VERTEX
  8
WINGS
 10
-3.352782
 20
18.741977
 30
2.848347
 70
    64
  0
VERTEX
  8
WINGS
 10
-3.33055
 20
18.844074
 30
2.843458
 70
    64
  0
VERTEX
  8
WINGS
 10
-3.308441
 20
18.94561
 30
2.831354
 70
    64
  0
VERTEX
  8
WINGS
 10
-3.28643
 20
19.046688
 30
2.815716
 70
    64
  0
VERTEX
  8
WINGS
 10
-3.264497
 20
19.147414
 30
2.797832
 70
    64
  0
VERTEX
  8
WINGS
 10
-3.242616
 20
19.247897
 30
2.77856
 70
    64
  0
VERTEX
  8
WINGS
 10
-3.22077
 20
19.348223
 30
2.758437
 70
    64
  0
VERTEX
  8
WINGS
 10
-2.512781
 20
17.900396
 30
2.696691
 70
    64
  0
VERTEX
  8
WINGS
 10
-2.488177
 20
18.013387
 30
2.747208
 70
    64
  0
VERTEX
  8
WINGS
 10
-2.461422
 20
18.136253
 30
2.773002
 70
    64
  0
VERTEX
  8
WINGS
 10
-2.434301
 20
18.260803
 30
2.788179
 70
    64
  0
VERTEX
  8
WINGS
 10
-2.407012
 20
18.386124
 30
2.793561
 70
    64
  0
VERTEX
  8
WINGS
 10
-2.379727
 20
18.511425
 30
2.787561
 70
    64
  0
VERTEX
  8
WINGS
 10
-2.352592
 20
18.636037
 30
2.772706
 70
    64
  0
VERTEX
  8
WINGS
 10
-2.32558
 20
18.760088
 30
2.753514
 70
    64
  0
VERTEX
  8
WINGS
 10
-2.298661
 20
18.883706
 30
2.731565
 70
    64
  0
VERTEX
  8
WINGS
 10
-2.271808
 20
19.007025
 30
2.707914
 70
    64
  0
VERTEX
  8
WINGS
 10
-2.244997
 20
19.130153
 30
2.683218
 70
    64
  0
VERTEX
  8
WINGS
 10
-1.586597
 20
17.454594
 30
2.623966
 70
    64
  0
VERTEX
  8
WINGS
 10
-1.557437
 20
17.588509
 30
2.683838
 70
    64
  0
VERTEX
  8
WINGS
 10
-1.525728
 20
17.734128
 30
2.714409
 70
    64
  0
VERTEX
  8
WINGS
 10
-1.493584
 20
17.881743
 30
2.732396
 70
    64
  0
VERTEX
  8
WINGS
 10
-1.461241
 20
18.030271
 30
2.738775
 70
    64
  0
VERTEX
  8
WINGS
 10
-1.428904
 20
18.178775
 30
2.731664
 70
    64
  0
VERTEX
  8
WINGS
 10
-1.396744
 20
18.326464
 30
2.714058
 70
    64
  0
VERTEX
  8
WINGS
 10
-1.364729
 20
18.473488
 30
2.691312
 70
    64
  0
VERTEX
  8
WINGS
 10
-1.332826
 20
18.619997
 30
2.665298
 70
    64
  0
VERTEX
  8
WINGS
 10
-1.301
 20
18.766154
 30
2.637267
 70
    64
  0
VERTEX
  8
WINGS
 10
-1.269223
 20
18.912083
 30
2.607998
 70
    64
  0
VERTEX
  8
WINGS
 10
-0.663323
 20
16.995475
 30
2.524698
 70
    64
  0
VERTEX
  8
WINGS
 10
-0.629346
 20
17.15151
 30
2.594461
 70
    64
  0
VERTEX
  8
WINGS
 10
-0.592399
 20
17.321182
 30
2.63008
 70
    64
  0
VERTEX
  8
WINGS
 10
-0.554946
 20
17.49318
 30
2.651039
 70
    64
  0
VERTEX
  8
WINGS
 10
-0.517261
 20
17.666242
 30
2.658471
 70
    64
  0
VERTEX
  8
WINGS
 10
-0.479582
 20
17.839276
 30
2.650186
 70
    64
  0
VERTEX
  8
WINGS
 10
-0.44211
 20
18.01136
 30
2.629671
 70
    64
  0
VERTEX
  8
WINGS
 10
-0.404807
 20
18.182668
 30
2.603169
 70
    64
  0
VERTEX
  8
WINGS
 10
-0.367634
 20
18.353378
 30
2.572858
 70
    64
  0
VERTEX
  8
WINGS
 10
-0.330551
 20
18.523677
 30
2.540197
 70
    64
  0
VERTEX
  8
WINGS
 10
-0.293526
 20
18.69371
 30
2.506093
 70
    64
  0
SEQEND
  8
WINGS
  0
POLYLINE
  8
WINGS
 66
     1
 10
0.0
 20
0.0
 30
0.0
 70
    16
 71
     7
 72
    11
  0
VERTEX
  8
WINGS
 10
-12.580612
 20
8.950456
 30
0.952561
 70
    64
  0
VERTEX
  8
WINGS
 10
-12.616839
 20
9.09622
 30
0.941574
 70
    64
  0
VERTEX
  8
WINGS
 10
-12.628687
 20
9.192443
 30
0.941574
 70
    64
  0
VERTEX
  8
WINGS
 10
-12.632208
 20
9.289367
 30
0.941574
 70
    64
  0
VERTEX
  8
WINGS
 10
-12.631571
 20
9.386364
 30
0.941574
 70
    64
  0
VERTEX
  8
WINGS
 10
-12.628458
 20
9.483314
 30
0.941574
 70
    64
  0
VERTEX
  8
WINGS
 10
-12.623
 20
9.580162
 30
0.941574
 70
    64
  0
VERTEX
  8
WINGS
 10
-12.615813
 20
9.676897
 30
0.941574
 70
    64
  0
VERTEX
  8
WINGS
 10
-12.6071
 20
9.773508
 30
0.941574
 70
    64
  0
VERTEX
  8
WINGS
 10
-12.597376
 20
9.870022
 30
0.941574
 70
    64
  0
VERTEX
  8
WINGS
 10
-12.586868
 20
9.966455
 30
0.941574
 70
    64
  0
VERTEX
  8
WINGS
 10
-12.580612
 20
8.950456
 30
0.952561
 70
    64
  0
VERTEX
  8
WINGS
 10
-12.580612
 20
9.04468
 30
0.993724
 70
    64
  0
VERTEX
  8
WINGS
 10
-12.580612
 20
9.147139
 30
1.014741
 70
    64
  0
VERTEX
  8
WINGS
 10
-12.580612
 20
9.251003
 30
1.027107
 70
    64
  0
VERTEX
  8
WINGS
 10
-12.580612
 20
9.355509
 30
1.031493
 70
    64
  0
VERTEX
  8
WINGS
 10
-12.580612
 20
9.459998
 30
1.026604
 70
    64
  0
VERTEX
  8
WINGS
 10
-12.580612
 20
9.563913
 30
1.014499
 70
    64
  0
VERTEX
  8
WINGS
 10
-12.580612
 20
9.667361
 30
0.998862
 70
    64
  0
VERTEX
  8
WINGS
 10
-12.580612
 20
9.770446
 30
0.980977
 70
    64
  0
VERTEX
  8
WINGS
 10
-12.580612
 20
9.873284
 30
0.961706
 70
    64
  0
VERTEX
  8
WINGS
 10
-12.580612
 20
9.975961
 30
0.941583
 70
    64
  0
VERTEX
  8
WINGS
 10
-11.580783
 20
8.711923
 30
0.879836
 70
    64
  0
VERTEX
  8
WINGS
 10
-11.580783
 20
8.827562
 30
0.930354
 70
    64
  0
VERTEX
  8
WINGS
 10
-11.580783
 20
8.953307
 30
0.956147
 70
    64
  0
VERTEX
  8
WINGS
 10
-11.580783
 20
9.080776
 30
0.971324
 70
    64
  0
VERTEX
  8
WINGS
 10
-11.580783
 20
9.209034
 30
0.976707
 70
    64
  0
VERTEX
  8
WINGS
 10
-11.580783
 20
9.33727
 30
0.970707
 70
    64
  0
VERTEX
  8
WINGS
 10
-11.580783
 20
9.464803
 30
0.955851
 70
    64
  0
VERTEX
  8
WINGS
 10
-11.580783
 20
9.591761
 30
0.93666
 70
    64
  0
VERTEX
  8
WINGS
 10
-11.580783
 20
9.718275
 30
0.914711
 70
    64
  0
VERTEX
  8
WINGS
 10
-11.580783
 20
9.844485
 30
0.891059
 70
    64
  0
VERTEX
  8
WINGS
 10
-11.580783
 20
9.970497
 30
0.866363
 70
    64
  0
VERTEX
  8
WINGS
 10
-10.580954
 20
8.473391
 30
0.807112
 70
    64
  0
VERTEX
  8
WINGS
 10
-10.580954
 20
8.610444
 30
0.866984
 70
    64
  0
VERTEX
  8
WINGS
 10
-10.580954
 20
8.759475
 30
0.897554
 70
    64
  0
VERTEX
  8
WINGS
 10
-10.580954
 20
8.910549
 30
0.915542
 70
    64
  0
VERTEX
  8
WINGS
 10
-10.580954
 20
9.062558
 30
0.921921
 70
    64
  0
VERTEX
  8
WINGS
 10
-10.580954
 20
9.214542
 30
0.914809
 70
    64
  0
VERTEX
  8
WINGS
 10
-10.580954
 20
9.365692
 30
0.897203
 70
    64
  0
VERTEX
  8
WINGS
 10
-10.580954
 20
9.516161
 30
0.874458
 70
    64
  0
VERTEX
  8
WINGS
 10
-10.580954
 20
9.666104
 30
0.848444
 70
    64
  0
VERTEX
  8
WINGS
 10
-10.580954
 20
9.815686
 30
0.820413
 70
    64
  0
VERTEX
  8
WINGS
 10
-10.580954
 20
9.965034
 30
0.791143
 70
    64
  0
VERTEX
  8
WINGS
 10
-9.581134
 20
8.221227
 30
0.707844
 70
    64
  0
VERTEX
  8
WINGS
 10
-9.581134
 20
8.380919
 30
0.777606
 70
    64
  0
VERTEX
  8
WINGS
 10
-9.581134
 20
8.554567
 30
0.813226
 70
    64
  0
VERTEX
  8
WINGS
 10
-9.581134
 20
8.730595
 30
0.834185
 70
    64
  0
VERTEX
  8
WINGS
 10
-9.581134
 20
8.907713
 30
0.841617
 70
    64
  0
VERTEX
  8
WINGS
 10
-9.581134
 20
9.084802
 30
0.833331
 70
    64
  0
VERTEX
  8
WINGS
 10
-9.581134
 20
9.260918
 30
0.812817
 70
    64
  0
VERTEX
  8
WINGS
 10
-9.581134
 20
9.436241
 30
0.786315
 70
    64
  0
VERTEX
  8
WINGS
 10
-9.581134
 20
9.610951
 30
0.756004
 70
    64
  0
VERTEX
  8
WINGS
 10
-9.581134
 20
9.785241
 30
0.723342
 70
    64
  0
VERTEX
  8
WINGS
 10
-9.581134
 20
9.959258
 30
0.689238
 70
    64
  0
VERTEX
  8
WINGS
 10
-8.581325
 20
7.955434
 30
0.656657
 70
    64
  0
VERTEX
  8
WINGS
 10
-8.581325
 20
8.138987
 30
0.736844
 70
    64
  0
VERTEX
  8
WINGS
 10
-8.581325
 20
8.338582
 30
0.777786
 70
    64
  0
VERTEX
  8
WINGS
 10
-8.581325
 20
8.540914
 30
0.801876
 70
    64
  0
VERTEX
  8
WINGS
 10
-8.581325
 20
8.744498
 30
0.810419
 70
    64
  0
VERTEX
  8
WINGS
 10
-8.581325
 20
8.948048
 30
0.800895
 70
    64
  0
VERTEX
  8
WINGS
 10
-8.581325
 20
9.150481
 30
0.777316
 70
    64
  0
VERTEX
  8
WINGS
 10
-8.581325
 20
9.352001
 30
0.746853
 70
    64
  0
VERTEX
  8
WINGS
 10
-8.581325
 20
9.552818
 30
0.712013
 70
    64
  0
VERTEX
  8
WINGS
 10
-8.581325
 20
9.753151
 30
0.674471
 70
    64
  0
VERTEX
  8
WINGS
 10
-8.581325
 20
9.95317
 30
0.635271
 70
    64
  0
VERTEX
  8
WINGS
 10
-7.581507
 20
7.700999
 30
0.596496
 70
    64
  0
VERTEX
  8
WINGS
 10
-7.581507
 20
7.907395
 30
0.686661
 70
    64
  0
VERTEX
  8
WINGS
 10
-7.581507
 20
8.131828
 30
0.732698
 70
    64
  0
VERTEX
  8
WINGS
 10
-7.581507
 20
8.359339
 30
0.759787
 70
    64
  0
VERTEX
  8
WINGS
 10
-7.581507
 20
8.588257
 30
0.769393
 70
    64
  0
VERTEX
  8
WINGS
 10
-7.581507
 20
8.817138
 30
0.758684
 70
    64
  0
VERTEX
  8
WINGS
 10
-7.581507
 20
9.044763
 30
0.73217
 70
    64
  0
VERTEX
  8
WINGS
 10
-7.581507
 20
9.271361
 30
0.697916
 70
    64
  0
VERTEX
  8
WINGS
 10
-7.581507
 20
9.497168
 30
0.658741
 70
    64
  0
VERTEX
  8
WINGS
 10
-7.581507
 20
9.722432
 30
0.616527
 70
    64
  0
VERTEX
  8
WINGS
 10
-7.581507
 20
9.947343
 30
0.572449
 70
    64
  0
SEQEND
  8
WINGS
  0
POLYLINE
  8
WINGS
 66
     1
 10
0.0
 20
0.0
 30
0.0
 70
    16
 71
     7
 72
    11
  0
VERTEX
  8
WINGS
 10
-7.581507
 20
7.700999
 30
0.596496
 70
    64
  0
VERTEX
  8
WINGS
 10
-7.581507
 20
7.907395
 30
0.686661
 70
    64
  0
VERTEX
  8
WINGS
 10
-7.581507
 20
8.131828
 30
0.732698
 70
    64
  0
VERTEX
  8
WINGS
 10
-7.581507
 20
8.359339
 30
0.759787
 70
    64
  0
VERTEX
  8
WINGS
 10
-7.581507
 20
8.588257
 30
0.769393
 70
    64
  0
VERTEX
  8
WINGS
 10
-7.581507
 20
8.817138
 30
0.758684
 70
    64
  0
VERTEX
  8
WINGS
 10
-7.581507
 20
9.044763
 30
0.73217
 70
    64
  0
VERTEX
  8
WINGS
 10
-7.581507
 20
9.271361
 30
0.697916
 70
    64
  0
VERTEX
  8
WINGS
 10
-7.581507
 20
9.497168
 30
0.658741
 70
    64
  0
VERTEX
  8
WINGS
 10
-7.581507
 20
9.722432
 30
0.616527
 70
    64
  0
VERTEX
  8
WINGS
 10
-7.581507
 20
9.947343
 30
0.572449
 70
    64
  0
VERTEX
  8
WINGS
 10
-6.581696
 20
7.437477
 30
0.506202
 70
    64
  0
VERTEX
  8
WINGS
 10
-6.581696
 20
7.667531
 30
0.606703
 70
    64
  0
VERTEX
  8
WINGS
 10
-6.581696
 20
7.91769
 30
0.658017
 70
    64
  0
VERTEX
  8
WINGS
 10
-6.581696
 20
8.171279
 30
0.68821
 70
    64
  0
VERTEX
  8
WINGS
 10
-6.581696
 20
8.426437
 30
0.698918
 70
    64
  0
VERTEX
  8
WINGS
 10
-6.581696
 20
8.681553
 30
0.686981
 70
    64
  0
VERTEX
  8
WINGS
 10
-6.581696
 20
8.935269
 30
0.657428
 70
    64
  0
VERTEX
  8
WINGS
 10
-6.581696
 20
9.187841
 30
0.619248
 70
    64
  0
VERTEX
  8
WINGS
 10
-6.581696
 20
9.439532
 30
0.575582
 70
    64
  0
VERTEX
  8
WINGS
 10
-6.581696
 20
9.690615
 30
0.52853
 70
    64
  0
VERTEX
  8
WINGS
 10
-6.581696
 20
9.941307
 30
0.479399
 70
    64
  0
VERTEX
  8
WINGS
 10
-5.581891
 20
7.164868
 30
0.4604
 70
    64
  0
VERTEX
  8
WINGS
 10
-5.581891
 20
7.419396
 30
0.571592
 70
    64
  0
VERTEX
  8
WINGS
 10
-5.581891
 20
7.696167
 30
0.628365
 70
    64
  0
VERTEX
  8
WINGS
 10
-5.581891
 20
7.976735
 30
0.66177
 70
    64
  0
VERTEX
  8
WINGS
 10
-5.581891
 20
8.259037
 30
0.673617
 70
    64
  0
VERTEX
  8
WINGS
 10
-5.581891
 20
8.541293
 30
0.66041
 70
    64
  0
VERTEX
  8
WINGS
 10
-5.581891
 20
8.822
 30
0.627713
 70
    64
  0
VERTEX
  8
WINGS
 10
-5.581891
 20
9.101442
 30
0.585472
 70
    64
  0
VERTEX
  8
WINGS
 10
-5.581891
 20
9.379907
 30
0.53716
 70
    64
  0
VERTEX
  8
WINGS
 10
-5.581891
 20
9.657702
 30
0.485103
 70
    64
  0
VERTEX
  8
WINGS
 10
-5.581891
 20
9.935063
 30
0.430745
 70
    64
  0
VERTEX
  8
WINGS
 10
-4.58207
 20
6.914977
 30
0.396649
 70
    64
  0
VERTEX
  8
WINGS
 10
-4.58207
 20
7.191939
 30
0.517642
 70
    64
  0
VERTEX
  8
WINGS
 10
-4.58207
 20
7.493105
 30
0.579419
 70
    64
  0
VERTEX
  8
WINGS
 10
-4.58207
 20
7.798402
 30
0.615769
 70
    64
  0
VERTEX
  8
WINGS
 10
-4.58207
 20
8.105586
 30
0.628659
 70
    64
  0
VERTEX
  8
WINGS
 10
-4.58207
 20
8.412721
 30
0.614289
 70
    64
  0
VERTEX
  8
WINGS
 10
-4.58207
 20
8.71817
 30
0.57871
 70
    64
  0
VERTEX
  8
WINGS
 10
-4.58207
 20
9.022242
 30
0.532745
 70
    64
  0
VERTEX
  8
WINGS
 10
-4.58207
 20
9.325252
 30
0.480175
 70
    64
  0
VERTEX
  8
WINGS
 10
-4.58207
 20
9.627532
 30
0.423529
 70
    64
  0
VERTEX
  8
WINGS
 10
-4.58207
 20
9.929339
 30
0.36438
 70
    64
  0
VERTEX
  8
WINGS
 10
-3.582414
 20
6.433459
 30
0.366652
 70
    64
  0
VERTEX
  8
WINGS
 10
-3.582414
 20
6.753649
 30
0.50653
 70
    64
  0
VERTEX
  8
WINGS
 10
-3.582414
 20
7.101823
 30
0.577949
 70
    64
  0
VERTEX
  8
WINGS
 10
-3.582414
 20
7.454771
 30
0.619972
 70
    64
  0
VERTEX
  8
WINGS
 10
-3.582414
 20
7.809902
 30
0.634875
 70
    64
  0
VERTEX
  8
WINGS
 10
-3.582414
 20
8.164975
 30
0.618261
 70
    64
  0
VERTEX
  8
WINGS
 10
-3.582414
 20
8.518099
 30
0.577129
 70
    64
  0
VERTEX
  8
WINGS
 10
-3.582414
 20
8.869631
 30
0.52399
 70
    64
  0
VERTEX
  8
WINGS
 10
-3.582414
 20
9.219935
 30
0.463215
 70
    64
  0
VERTEX
  8
WINGS
 10
-3.582414
 20
9.569396
 30
0.397728
 70
    64
  0
VERTEX
  8
WINGS
 10
-3.582414
 20
9.91831
 30
0.329347
 70
    64
  0
VERTEX
  8
WINGS
 10
-2.582759
 20
5.951759
 30
0.299487
 70
    64
  0
VERTEX
  8
WINGS
 10
-2.582759
 20
6.315195
 30
0.458257
 70
    64
  0
VERTEX
  8
WINGS
 10
-2.582759
 20
6.710393
 30
0.539322
 70
    64
  0
VERTEX
  8
WINGS
 10
-2.582759
 20
7.11101
 30
0.587021
 70
    64
  0
VERTEX
  8
WINGS
 10
-2.582759
 20
7.514105
 30
0.603936
 70
    64
  0
VERTEX
  8
WINGS
 10
-2.582759
 20
7.917135
 30
0.585079
 70
    64
  0
VERTEX
  8
WINGS
 10
-2.582759
 20
8.317952
 30
0.538391
 70
    64
  0
VERTEX
  8
WINGS
 10
-2.582759
 20
8.716962
 30
0.478075
 70
    64
  0
VERTEX
  8
WINGS
 10
-2.582759
 20
9.114579
 30
0.409092
 70
    64
  0
VERTEX
  8
WINGS
 10
-2.582759
 20
9.511238
 30
0.33476
 70
    64
  0
VERTEX
  8
WINGS
 10
-2.582759
 20
9.907277
 30
0.257143
 70
    64
  0
VERTEX
  8
WINGS
 10
-1.505483
 20
5.45652
 30
0.243019
 70
    64
  0
VERTEX
  8
WINGS
 10
-1.505483
 20
5.864416
 30
0.421212
 70
    64
  0
VERTEX
  8
WINGS
 10
-1.505483
 20
6.307961
 30
0.512194
 70
    64
  0
VERTEX
  8
WINGS
 10
-1.505483
 20
6.757587
 30
0.565728
 70
    64
  0
VERTEX
  8
WINGS
 10
-1.505483
 20
7.209995
 30
0.584713
 70
    64
  0
VERTEX
  8
WINGS
 10
-1.505483
 20
7.662329
 30
0.563549
 70
    64
  0
VERTEX
  8
WINGS
 10
-1.505483
 20
8.11218
 30
0.51115
 70
    64
  0
VERTEX
  8
WINGS
 10
-1.505483
 20
8.560003
 30
0.443455
 70
    64
  0
VERTEX
  8
WINGS
 10
-1.505483
 20
9.006262
 30
0.366032
 70
    64
  0
VERTEX
  8
WINGS
 10
-1.505483
 20
9.451446
 30
0.282607
 70
    64
  0
VERTEX
  8
WINGS
 10
-1.505483
 20
9.895934
 30
0.195495
 70
    64
  0
SEQEND
  8
WINGS
  0
POLYLINE
  8
WINGS
 66
     1
 10
0.0
 20
0.0
 30
0.0
 70
    16
 71
     5
 72
    11
  0
VERTEX
  8
WINGS
 10
-3.438965
 20
18.346199
 30
2.769416
 70
    64
  0
VERTEX
  8
WINGS
 10
-3.442918
 20
18.49624
 30
2.758428
 70
    64
  0
VERTEX
  8
WINGS
 10
-3.434022
 20
18.59278
 30
2.758428
 70
    64
  0
VERTEX
  8
WINGS
 10
-3.41684
 20
18.688234
 30
2.758428
 70
    64
  0
VERTEX
  8
WINGS
 10
-3.395579
 20
18.782874
 30
2.758428
 70
    64
  0
VERTEX
  8
WINGS
 10
-3.371909
 20
18.876942
 30
2.758428
 70
    64
  0
VERTEX
  8
WINGS
 10
-3.34597
 20
18.970411
 30
2.758428
 70
    64
  0
VERTEX
  8
WINGS
 10
-3.318366
 20
19.063402
 30
2.758428
 70
    64
  0
VERTEX
  8
WINGS
 10
-3.289297
 20
19.155947
 30
2.758428
 70
    64
  0
VERTEX
  8
WINGS
 10
-3.25926
 20
19.248183
 30
2.758428
 70
    64
  0
VERTEX
  8
WINGS
 10
-3.22077
 20
19.348223
 30
2.758437
 70
    64
  0
VERTEX
  8
WINGS
 10
-3.438965
 20
18.346199
 30
2.769416
 70
    64
  0
VERTEX
  8
WINGS
 10
-3.420946
 20
18.428946
 30
2.724664
 70
    64
  0
VERTEX
  8
WINGS
 10
-3.398902
 20
18.530181
 30
2.710526
 70
    64
  0
VERTEX
  8
WINGS
 10
-3.376666
 20
18.632294
 30
2.706066
 70
    64
  0
VERTEX
  8
WINGS
 10
-3.354412
 20
18.734492
 30
2.708025
 70
    64
  0
VERTEX
  8
WINGS
 10
-3.332193
 20
18.836532
 30
2.71436
 70
    64
  0
VERTEX
  8
WINGS
 10
-3.310013
 20
18.938388
 30
2.723343
 70
    64
  0
VERTEX
  8
WINGS
 10
-3.287846
 20
19.040189
 30
2.73297
 70
    64
  0
VERTEX
  8
WINGS
 10
-3.265671
 20
19.142022
 30
2.74223
 70
    64
  0
VERTEX
  8
WINGS
 10
-3.243468
 20
19.243984
 30
2.749805
 70
    64
  0
VERTEX
  8
WINGS
 10
-3.22123
 20
19.346113
 30
2.754384
 70
    64
  0
VERTEX
  8
WINGS
 10
-2.512781
 20
17.900396
 30
2.696691
 70
    64
  0
VERTEX
  8
WINGS
 10
-2.490667
 20
18.001949
 30
2.641768
 70
    64
  0
VERTEX
  8
WINGS
 10
-2.463613
 20
18.126192
 30
2.624417
 70
    64
  0
VERTEX
  8
WINGS
 10
-2.436324
 20
18.251513
 30
2.618943
 70
    64
  0
VERTEX
  8
WINGS
 10
-2.409012
 20
18.376938
 30
2.621347
 70
    64
  0
VERTEX
  8
WINGS
 10
-2.381743
 20
18.502169
 30
2.629122
 70
    64
  0
VERTEX
  8
WINGS
 10
-2.354522
 20
18.627174
 30
2.640147
 70
    64
  0
VERTEX
  8
WINGS
 10
-2.327317
 20
18.752112
 30
2.651962
 70
    64
  0
VERTEX
  8
WINGS
 10
-2.300102
 20
18.877088
 30
2.663327
 70
    64
  0
VERTEX
  8
WINGS
 10
-2.272854
 20
19.002224
 30
2.672623
 70
    64
  0
VERTEX
  8
WINGS
 10
-2.244997
 20
19.130153
 30
2.683218
 70
    64
  0
VERTEX
  8
WINGS
 10
-1.586597
 20
17.454594
 30
2.623966
 70
    64
  0
VERTEX
  8
WINGS
 10
-1.560388
 20
17.574953
 30
2.558872
 70
    64
  0
VERTEX
  8
WINGS
 10
-1.528324
 20
17.722204
 30
2.538309
 70
    64
  0
VERTEX
  8
WINGS
 10
-1.495981
 20
17.870732
 30
2.531821
 70
    64
  0
VERTEX
  8
WINGS
 10
-1.463612
 20
18.019384
 30
2.53467
 70
    64
  0
VERTEX
  8
WINGS
 10
-1.431292
 20
18.167806
 30
2.543885
 70
    64
  0
VERTEX
  8
WINGS
 10
-1.399031
 20
18.31596
 30
2.556951
 70
    64
  0
VERTEX
  8
WINGS
 10
-1.366788
 20
18.464034
 30
2.570954
 70
    64
  0
VERTEX
  8
WINGS
 10
-1.334534
 20
18.612154
 30
2.584423
 70
    64
  0
VERTEX
  8
WINGS
 10
-1.302239
 20
18.760464
 30
2.595441
 70
    64
  0
VERTEX
  8
WINGS
 10
-1.269223
 20
18.912083
 30
2.607998
 70
    64
  0
VERTEX
  8
WINGS
 10
-0.663323
 20
16.995475
 30
2.524698
 70
    64
  0
VERTEX
  8
WINGS
 10
-0.632785
 20
17.135715
 30
2.448853
 70
    64
  0
VERTEX
  8
WINGS
 10
-0.595424
 20
17.307288
 30
2.424892
 70
    64
  0
VERTEX
  8
WINGS
 10
-0.55774
 20
17.48035
 30
2.417333
 70
    64
  0
VERTEX
  8
WINGS
 10
-0.520023
 20
17.653556
 30
2.420653
 70
    64
  0
VERTEX
  8
WINGS
 10
-0.482365
 20
17.826494
 30
2.43139
 70
    64
  0
VERTEX
  8
WINGS
 10
-0.444775
 20
17.999121
 30
2.446615
 70
    64
  0
VERTEX
  8
WINGS
 10
-0.407206
 20
18.171653
 30
2.462931
 70
    64
  0
VERTEX
  8
WINGS
 10
-0.369624
 20
18.34424
 30
2.478624
 70
    64
  0
VERTEX
  8
WINGS
 10
-0.331995
 20
18.517047
 30
2.491462
 70
    64
  0
VERTEX
  8
WINGS
 10
-0.293526
 20
18.69371
 30
2.506093
 70
    64
  0
SEQEND
  8
WINGS
  0
POLYLINE
  8
WINGS
 66
     1
 10
0.0
 20
0.0
 30
0.0
 70
    16
 71
     7
 72
    11
  0
VERTEX
  8
WINGS
 10
-12.580612
 20
8.950456
 30
0.952561
 70
    64
  0
VERTEX
  8
WINGS
 10
-12.616839
 20
9.09622
 30
0.941574
 70
    64
  0
VERTEX
  8
WINGS
 10
-12.628687
 20
9.192443
 30
0.941574
 70
    64
  0
VERTEX
  8
WINGS
 10
-12.632208
 20
9.289367
 30
0.941574
 70
    64
  0
VERTEX
  8
WINGS
 10
-12.631571
 20
9.386364
 30
0.941574
 70
    64
  0
VERTEX
  8
WINGS
 10
-12.628458
 20
9.483314
 30
0.941574
 70
    64
  0
VERTEX
  8
WINGS
 10
-12.623
 20
9.580162
 30
0.941574
 70
    64
  0
VERTEX
  8
WINGS
 10
-12.615813
 20
9.676897
 30
0.941574
 70
    64
  0
VERTEX
  8
WINGS
 10
-12.6071
 20
9.773508
 30
0.941574
 70
    64
  0
VERTEX
  8
WINGS
 10
-12.597376
 20
9.870022
 30
0.941574
 70
    64
  0
VERTEX
  8
WINGS
 10
-12.586868
 20
9.966455
 30
0.941574
 70
    64
  0
VERTEX
  8
WINGS
 10
-12.580612
 20
8.950456
 30
0.952561
 70
    64
  0
VERTEX
  8
WINGS
 10
-12.580612
 20
9.035142
 30
0.907809
 70
    64
  0
VERTEX
  8
WINGS
 10
-12.580612
 20
9.138749
 30
0.893672
 70
    64
  0
VERTEX
  8
WINGS
 10
-12.580612
 20
9.243255
 30
0.889212
 70
    64
  0
VERTEX
  8
WINGS
 10
-12.580612
 20
9.347848
 30
0.89117
 70
    64
  0
VERTEX
  8
WINGS
 10
-12.580612
 20
9.45228
 30
0.897506
 70
    64
  0
VERTEX
  8
WINGS
 10
-12.580612
 20
9.556523
 30
0.906489
 70
    64
  0
VERTEX
  8
WINGS
 10
-12.580612
 20
9.660709
 30
0.916116
 70
    64
  0
VERTEX
  8
WINGS
 10
-12.580612
 20
9.764928
 30
0.925376
 70
    64
  0
VERTEX
  8
WINGS
 10
-12.580612
 20
9.86928
 30
0.93295
 70
    64
  0
VERTEX
  8
WINGS
 10
-12.580612
 20
9.973801
 30
0.93753
 70
    64
  0
VERTEX
  8
WINGS
 10
-11.580783
 20
8.711923
 30
0.879836
 70
    64
  0
VERTEX
  8
WINGS
 10
-11.580783
 20
8.815856
 30
0.824914
 70
    64
  0
VERTEX
  8
WINGS
 10
-11.580783
 20
8.94301
 30
0.807563
 70
    64
  0
VERTEX
  8
WINGS
 10
-11.580783
 20
9.071267
 30
0.802089
 70
    64
  0
VERTEX
  8
WINGS
 10
-11.580783
 20
9.199632
 30
0.804493
 70
    64
  0
VERTEX
  8
WINGS
 10
-11.580783
 20
9.327798
 30
0.812268
 70
    64
  0
VERTEX
  8
WINGS
 10
-11.580783
 20
9.455732
 30
0.823293
 70
    64
  0
VERTEX
  8
WINGS
 10
-11.580783
 20
9.583597
 30
0.835108
 70
    64
  0
VERTEX
  8
WINGS
 10
-11.580783
 20
9.711503
 30
0.846472
 70
    64
  0
VERTEX
  8
WINGS
 10
-11.580783
 20
9.839571
 30
0.855769
 70
    64
  0
VERTEX
  8
WINGS
 10
-11.580783
 20
9.967847
 30
0.861389
 70
    64
  0
VERTEX
  8
WINGS
 10
-10.580954
 20
8.473391
 30
0.807112
 70
    64
  0
VERTEX
  8
WINGS
 10
-10.580954
 20
8.59657
 30
0.742018
 70
    64
  0
VERTEX
  8
WINGS
 10
-10.580954
 20
8.747272
 30
0.721454
 70
    64
  0
VERTEX
  8
WINGS
 10
-10.580954
 20
8.89928
 30
0.714967
 70
    64
  0
VERTEX
  8
WINGS
 10
-10.580954
 20
9.051415
 30
0.717816
 70
    64
  0
VERTEX
  8
WINGS
 10
-10.580954
 20
9.203316
 30
0.727031
 70
    64
  0
VERTEX
  8
WINGS
 10
-10.580954
 20
9.354942
 30
0.740097
 70
    64
  0
VERTEX
  8
WINGS
 10
-10.580954
 20
9.506486
 30
0.7541
 70
    64
  0
VERTEX
  8
WINGS
 10
-10.580954
 20
9.658077
 30
0.767569
 70
    64
  0
VERTEX
  8
WINGS
 10
-10.580954
 20
9.809862
 30
0.778587
 70
    64
  0
VERTEX
  8
WINGS
 10
-10.580954
 20
9.961893
 30
0.785248
 70
    64
  0
VERTEX
  8
WINGS
 10
-9.581134
 20
8.221227
 30
0.707844
 70
    64
  0
VERTEX
  8
WINGS
 10
-9.581134
 20
8.364753
 30
0.631998
 70
    64
  0
VERTEX
  8
WINGS
 10
-9.581134
 20
8.540348
 30
0.608038
 70
    64
  0
VERTEX
  8
WINGS
 10
-9.581134
 20
8.717465
 30
0.600479
 70
    64
  0
VERTEX
  8
WINGS
 10
-9.581134
 20
8.89473
 30
0.603798
 70
    64
  0
VERTEX
  8
WINGS
 10
-9.581134
 20
9.071721
 30
0.614535
 70
    64
  0
VERTEX
  8
WINGS
 10
-9.581134
 20
9.248392
 30
0.62976
 70
    64
  0
VERTEX
  8
WINGS
 10
-9.581134
 20
9.424968
 30
0.646076
 70
    64
  0
VERTEX
  8
WINGS
 10
-9.581134
 20
9.601599
 30
0.66177
 70
    64
  0
VERTEX
  8
WINGS
 10
-9.581134
 20
9.778455
 30
0.674608
 70
    64
  0
VERTEX
  8
WINGS
 10
-9.581134
 20
9.959258
 30
0.689238
 70
    64
  0
VERTEX
  8
WINGS
 10
-8.581325
 20
7.955434
 30
0.656657
 70
    64
  0
VERTEX
  8
WINGS
 10
-8.581325
 20
8.120406
 30
0.569478
 70
    64
  0
VERTEX
  8
WINGS
 10
-8.581325
 20
8.322239
 30
0.541938
 70
    64
  0
VERTEX
  8
WINGS
 10
-8.581325
 20
8.525821
 30
0.533249
 70
    64
  0
VERTEX
  8
WINGS
 10
-8.581325
 20
8.729574
 30
0.537064
 70
    64
  0
VERTEX
  8
WINGS
 10
-8.581325
 20
8.933012
 30
0.549406
 70
    64
  0
VERTEX
  8
WINGS
 10
-8.581325
 20
9.136083
 30
0.566906
 70
    64
  0
VERTEX
  8
WINGS
 10
-8.581325
 20
9.339043
 30
0.58566
 70
    64
  0
VERTEX
  8
WINGS
 10
-8.581325
 20
9.542067
 30
0.603698
 70
    64
  0
VERTEX
  8
WINGS
 10
-8.581325
 20
9.745351
 30
0.618454
 70
    64
  0
VERTEX
  8
WINGS
 10
-8.581325
 20
9.948964
 30
0.627375
 70
    64
  0
VERTEX
  8
WINGS
 10
-7.581507
 20
7.700999
 30
0.596496
 70
    64
  0
VERTEX
  8
WINGS
 10
-7.581507
 20
7.886501
 30
0.498468
 70
    64
  0
VERTEX
  8
WINGS
 10
-7.581507
 20
8.113451
 30
0.4675
 70
    64
  0
VERTEX
  8
WINGS
 10
-7.581507
 20
8.342368
 30
0.45773
 70
    64
  0
VERTEX
  8
WINGS
 10
-7.581507
 20
8.571477
 30
0.462021
 70
    64
  0
VERTEX
  8
WINGS
 10
-7.581507
 20
8.800232
 30
0.475898
 70
    64
  0
VERTEX
  8
WINGS
 10
-7.581507
 20
9.028574
 30
0.495576
 70
    64
  0
VERTEX
  8
WINGS
 10
-7.581507
 20
9.256791
 30
0.516663
 70
    64
  0
VERTEX
  8
WINGS
 10
-7.581507
 20
9.48508
 30
0.536947
 70
    64
  0
VERTEX
  8
WINGS
 10
-7.581507
 20
9.713661
 30
0.553539
 70
    64
  0
VERTEX
  8
WINGS
 10
-7.581507
 20
9.942612
 30
0.56357
 70
    64
  0
SEQEND
  8
WINGS
  0
POLYLINE
  8
WINGS
 66
     1
 10
0.0
 20
0.0
 30
0.0
 70
    16
 71
     7
 72
    11
  0
VERTEX
  8
WINGS
 10
-7.581507
 20
7.700999
 30
0.596496
 70
    64
  0
VERTEX
  8
WINGS
 10
-7.581507
 20
7.886501
 30
0.498468
 70
    64
  0
VERTEX
  8
WINGS
 10
-7.581507
 20
8.113451
 30
0.4675
 70
    64
  0
VERTEX
  8
WINGS
 10
-7.581507
 20
8.342368
 30
0.45773
 70
    64
  0
VERTEX
  8
WINGS
 10
-7.581507
 20
8.571477
 30
0.462021
 70
    64
  0
VERTEX
  8
WINGS
 10
-7.581507
 20
8.800232
 30
0.475898
 70
    64
  0
VERTEX
  8
WINGS
 10
-7.581507
 20
9.028574
 30
0.495576
 70
    64
  0
VERTEX
  8
WINGS
 10
-7.581507
 20
9.256791
 30
0.516663
 70
    64
  0
VERTEX
  8
WINGS
 10
-7.581507
 20
9.48508
 30
0.536947
 70
    64
  0
VERTEX
  8
WINGS
 10
-7.581507
 20
9.713661
 30
0.553539
 70
    64
  0
VERTEX
  8
WINGS
 10
-7.581507
 20
9.942612
 30
0.56357
 70
    64
  0
VERTEX
  8
WINGS
 10
-6.581696
 20
7.437477
 30
0.506202
 70
    64
  0
VERTEX
  8
WINGS
 10
-6.581696
 20
7.644242
 30
0.396938
 70
    64
  0
VERTEX
  8
WINGS
 10
-6.581696
 20
7.897206
 30
0.362421
 70
    64
  0
VERTEX
  8
WINGS
 10
-6.581696
 20
8.152363
 30
0.351531
 70
    64
  0
VERTEX
  8
WINGS
 10
-6.581696
 20
8.407733
 30
0.356313
 70
    64
  0
VERTEX
  8
WINGS
 10
-6.581696
 20
8.662709
 30
0.371781
 70
    64
  0
VERTEX
  8
WINGS
 10
-6.581696
 20
8.917224
 30
0.393714
 70
    64
  0
VERTEX
  8
WINGS
 10
-6.581696
 20
9.171601
 30
0.417219
 70
    64
  0
VERTEX
  8
WINGS
 10
-6.581696
 20
9.426058
 30
0.439827
 70
    64
  0
VERTEX
  8
WINGS
 10
-6.581696
 20
9.68084
 30
0.458322
 70
    64
  0
VERTEX
  8
WINGS
 10
-6.581696
 20
9.936034
 30
0.469502
 70
    64
  0
VERTEX
  8
WINGS
 10
-5.581891
 20
7.164868
 30
0.4604
 70
    64
  0
VERTEX
  8
WINGS
 10
-5.581891
 20
7.39363
 30
0.339512
 70
    64
  0
VERTEX
  8
WINGS
 10
-5.581891
 20
7.673505
 30
0.301322
 70
    64
  0
VERTEX
  8
WINGS
 10
-5.581891
 20
7.955806
 30
0.289274
 70
    64
  0
VERTEX
  8
WINGS
 10
-5.581891
 20
8.238343
 30
0.294565
 70
    64
  0
VERTEX
  8
WINGS
 10
-5.581891
 20
8.520444
 30
0.311678
 70
    64
  0
VERTEX
  8
WINGS
 10
-5.581891
 20
8.802035
 30
0.335945
 70
    64
  0
VERTEX
  8
WINGS
 10
-5.581891
 20
9.083474
 30
0.36195
 70
    64
  0
VERTEX
  8
WINGS
 10
-5.581891
 20
9.365
 30
0.386964
 70
    64
  0
VERTEX
  8
WINGS
 10
-5.581891
 20
9.646886
 30
0.407425
 70
    64
  0
VERTEX
  8
WINGS
 10
-5.581891
 20
9.92923
 30
0.419796
 70
    64
  0
VERTEX
  8
WINGS
 10
-4.58207
 20
6.914977
 30
0.396649
 70
    64
  0
VERTEX
  8
WINGS
 10
-4.58207
 20
7.163902
 30
0.265106
 70
    64
  0
VERTEX
  8
WINGS
 10
-4.58207
 20
7.468445
 30
0.22355
 70
    64
  0
VERTEX
  8
WINGS
 10
-4.58207
 20
7.775628
 30
0.21044
 70
    64
  0
VERTEX
  8
WINGS
 10
-4.58207
 20
8.083069
 30
0.216197
 70
    64
  0
VERTEX
  8
WINGS
 10
-4.58207
 20
8.390034
 30
0.234819
 70
    64
  0
VERTEX
  8
WINGS
 10
-4.58207
 20
8.696446
 30
0.261224
 70
    64
  0
VERTEX
  8
WINGS
 10
-4.58207
 20
9.00269
 30
0.289522
 70
    64
  0
VERTEX
  8
WINGS
 10
-4.58207
 20
9.309031
 30
0.31674
 70
    64
  0
VERTEX
  8
WINGS
 10
-4.58207
 20
9.615763
 30
0.339005
 70
    64
  0
VERTEX
  8
WINGS
 10
-4.58207
 20
9.922992
 30
0.352466
 70
    64
  0
VERTEX
  8
WINGS
 10
-3.582414
 20
6.433459
 30
0.366652
 70
    64
  0
VERTEX
  8
WINGS
 10
-3.582414
 20
6.721236
 30
0.214577
 70
    64
  0
VERTEX
  8
WINGS
 10
-3.582414
 20
7.073313
 30
0.166536
 70
    64
  0
VERTEX
  8
WINGS
 10
-3.582414
 20
7.428443
 30
0.151379
 70
    64
  0
VERTEX
  8
WINGS
 10
-3.582414
 20
7.783869
 30
0.158035
 70
    64
  0
VERTEX
  8
WINGS
 10
-3.582414
 20
8.138747
 30
0.179563
 70
    64
  0
VERTEX
  8
WINGS
 10
-3.582414
 20
8.492983
 30
0.21009
 70
    64
  0
VERTEX
  8
WINGS
 10
-3.582414
 20
8.847027
 30
0.242804
 70
    64
  0
VERTEX
  8
WINGS
 10
-3.582414
 20
9.201183
 30
0.274271
 70
    64
  0
VERTEX
  8
WINGS
 10
-3.582414
 20
9.55579
 30
0.300011
 70
    64
  0
VERTEX
  8
WINGS
 10
-3.582414
 20
9.910972
 30
0.315573
 70
    64
  0
VERTEX
  8
WINGS
 10
-2.582759
 20
5.951759
 30
0.299487
 70
    64
  0
VERTEX
  8
WINGS
 10
-2.582759
 20
6.278404
 30
0.126873
 70
    64
  0
VERTEX
  8
WINGS
 10
-2.582759
 20
6.678033
 30
0.072343
 70
    64
  0
VERTEX
  8
WINGS
 10
-2.582759
 20
7.081126
 30
0.055139
 70
    64
  0
VERTEX
  8
WINGS
 10
-2.582759
 20
7.484557
 30
0.062694
 70
    64
  0
VERTEX
  8
WINGS
 10
-2.582759
 20
7.887364
 30
0.087129
 70
    64
  0
VERTEX
  8
WINGS
 10
-2.582759
 20
8.289445
 30
0.121779
 70
    64
  0
VERTEX
  8
WINGS
 10
-2.582759
 20
8.691306
 30
0.158912
 70
    64
  0
VERTEX
  8
WINGS
 10
-2.582759
 20
9.093294
 30
0.194629
 70
    64
  0
VERTEX
  8
WINGS
 10
-2.582759
 20
9.495794
 30
0.223845
 70
    64
  0
VERTEX
  8
WINGS
 10
-2.582759
 20
9.898948
 30
0.241509
 70
    64
  0
VERTEX
  8
WINGS
 10
-1.505483
 20
5.45652
 30
0.243019
 70
    64
  0
VERTEX
  8
WINGS
 10
-1.505483
 20
5.823125
 30
0.049288
 70
    64
  0
VERTEX
  8
WINGS
 10
-1.505483
 20
6.271642
 30
-0.011913
 70
    64
  0
VERTEX
  8
WINGS
 10
-1.505483
 20
6.724048
 30
-0.031222
 70
    64
  0
VERTEX
  8
WINGS
 10
-1.505483
 20
7.176831
 30
-0.022742
 70
    64
  0
VERTEX
  8
WINGS
 10
-1.505483
 20
7.628916
 30
0.004683
 70
    64
  0
VERTEX
  8
WINGS
 10
-1.505483
 20
8.080185
 30
0.043572
 70
    64
  0
VERTEX
  8
WINGS
 10
-1.505483
 20
8.531208
 30
0.085247
 70
    64
  0
VERTEX
  8
WINGS
 10
-1.505483
 20
8.982372
 30
0.125333
 70
    64
  0
VERTEX
  8
WINGS
 10
-1.505483
 20
9.434113
 30
0.158124
 70
    64
  0
VERTEX
  8
WINGS
 10
-1.505483
 20
9.895934
 30
0.195495
 70
    64
  0
SEQEND
  8
WINGS
  0
ENDBLK
  8
0
 62
     1
  0
ENDSEC
  0
SECTION
  2
ENTITIES
  0
POLYLINE
  8
BODY
 66
     1
 10
0.0
 20
0.0
 30
0.0
 70
    17
 71
    20
 72
     7
  0
VERTEX
  8
BODY
 10
17.349895
 20
0.924836
 30
1.422139
 70
    64
  0
VERTEX
  8
BODY
 10
17.349895
 20
0.812668
 30
1.371093
 70
    64
  0
VERTEX
  8
BODY
 10
17.349895
 20
0.714128
 30
1.297084
 70
    64
  0
VERTEX
  8
BODY
 10
17.349895
 20
0.633842
 30
1.203587
 70
    64
  0
VERTEX
  8
BODY
 10
17.349895
 20
0.575579
 30
1.094992
 70
    64
  0
VERTEX
  8
BODY
 10
17.349895
 20
0.542076
 30
0.976396
 70
    64
  0
VERTEX
  8
BODY
 10
17.349895
 20
0.534904
 30
0.853367
 70
    64
  0
VERTEX
  8
BODY
 10
17.525655
 20
0.924836
 30
1.394301
 70
    64
  0
VERTEX
  8
BODY
 10
17.509881
 20
0.812668
 30
1.345754
 70
    64
  0
VERTEX
  8
BODY
 10
17.487011
 20
0.714128
 30
1.275367
 70
    64
  0
VERTEX
  8
BODY
 10
17.458119
 20
0.633842
 30
1.186446
 70
    64
  0
VERTEX
  8
BODY
 10
17.424561
 20
0.575579
 30
1.083166
 70
    64
  0
VERTEX
  8
BODY
 10
17.387913
 20
0.542076
 30
0.970374
 70
    64
  0
VERTEX
  8
BODY
 10
17.349895
 20
0.534904
 30
0.853367
 70
    64
  0
VERTEX
  8
BODY
 10
17.68421
 20
0.924836
 30
1.313513
 70
    64
  0
VERTEX
  8
BODY
 10
17.654206
 20
0.812668
 30
1.272216
 70
    64
  0
VERTEX
  8
BODY
 10
17.610705
 20
0.714128
 30
1.212342
 70
    64
  0
VERTEX
  8
BODY
 10
17.555749
 20
0.633842
 30
1.136701
 70
    64
  0
VERTEX
  8
BODY
 10
17.491918
 20
0.575579
 30
1.048845
 70
    64
  0
VERTEX
  8
BODY
 10
17.422209
 20
0.542076
 30
0.952899
 70
    64
  0
VERTEX
  8
BODY
 10
17.349895
 20
0.534904
 30
0.853367
 70
    64
  0
VERTEX
  8
BODY
 10
17.810041
 20
0.924836
 30
1.187683
 70
    64
  0
VERTEX
  8
BODY
 10
17.768744
 20
0.812668
 30
1.157679
 70
    64
  0
VERTEX
  8
BODY
 10
17.708869
 20
0.714128
 30
1.114177
 70
    64
  0
VERTEX
  8
BODY
 10
17.633229
 20
0.633842
 30
1.059221
 70
    64
  0
VERTEX
  8
BODY
 10
17.545373
 20
0.575579
 30
0.99539
 70
    64
  0
VERTEX
  8
BODY
 10
17.449427
 20
0.542076
 30
0.925681
 70
    64
  0
VERTEX
  8
BODY
 10
17.349895
 20
0.534904
 30
0.853367
 70
    64
  0
VERTEX
  8
BODY
 10
17.890829
 20
0.924836
 30
1.029127
 70
    64
  0
VERTEX
  8
BODY
 10
17.842281
 20
0.812668
 30
1.013353
 70
    64
  0
VERTEX
  8
BODY
 10
17.771895
 20
0.714128
 30
0.990483
 70
    64
  0
VERTEX
  8
BODY
 10
17.682974
 20
0.633842
 30
0.961591
 70
    64
  0
VERTEX
  8
BODY
 10
17.579693
 20
0.575579
 30
0.928033
 70
    64
  0
VERTEX
  8
BODY
 10
17.466902
 20
0.542076
 30
0.891385
 70
    64
  0
VERTEX
  8
BODY
 10
17.349895
 20
0.534904
 30
0.853367
 70
    64
  0
VERTEX
  8
BODY
 10
17.918667
 20
0.924836
 30
0.853367
 70
    64
  0
VERTEX
  8
BODY
 10
17.86762
 20
0.812668
 30
0.853367
 70
    64
  0
VERTEX
  8
BODY
 10
17.793612
 20
0.714128
 30
0.853367
 70
    64
  0
VERTEX
  8
BODY
 10
17.700115
 20
0.633842
 30
0.853367
 70
    64
  0
VERTEX
  8
BODY
 10
17.591519
 20
0.575579
 30
0.853367
 70
    64
  0
VERTEX
  8
BODY
 10
17.472923
 20
0.542076
 30
0.853367
 70
    64
  0
VERTEX
  8
BODY
 10
17.349895
 20
0.534904
 30
0.853367
 70
    64
  0
VERTEX
  8
BODY
 10
17.890829
 20
0.924836
 30
0.677607
 70
    64
  0
VERTEX
  8
BODY
 10
17.842281
 20
0.812668
 30
0.693381
 70
    64
  0
VERTEX
  8
BODY
 10
17.771895
 20
0.714128
 30
0.716251
 70
    64
  0
VERTEX
  8
BODY
 10
17.682974
 20
0.633842
 30
0.745143
 70
    64
  0
VERTEX
  8
BODY
 10
17.579693
 20
0.575579
 30
0.778701
 70
    64
  0
VERTEX
  8
BODY
 10
17.466902
 20
0.542076
 30
0.815349
 70
    64
  0
VERTEX
  8
BODY
 10
17.349895
 20
0.534904
 30
0.853367
 70
    64
  0
VERTEX
  8
BODY
 10
17.810041
 20
0.924836
 30
0.519051
 70
    64
  0
VERTEX
  8
BODY
 10
17.768744
 20
0.812668
 30
0.549055
 70
    64
  0
VERTEX
  8
BODY
 10
17.708869
 20
0.714128
 30
0.592557
 70
    64
  0
VERTEX
  8
BODY
 10
17.633229
 20
0.633842
 30
0.647513
 70
    64
  0
VERTEX
  8
BODY
 10
17.545373
 20
0.575579
 30
0.711344
 70
    64
  0
VERTEX
  8
BODY
 10
17.449427
 20
0.542076
 30
0.781053
 70
    64
  0
VERTEX
  8
BODY
 10
17.349895
 20
0.534904
 30
0.853367
 70
    64
  0
VERTEX
  8
BODY
 10
17.68421
 20
0.924836
 30
0.393221
 70
    64
  0
VERTEX
  8
BODY
 10
17.654206
 20
0.812668
 30
0.434518
 70
    64
  0
VERTEX
  8
BODY
 10
17.610705
 20
0.714128
 30
0.494392
 70
    64
  0
VERTEX
  8
BODY
 10
17.555749
 20
0.633842
 30
0.570033
 70
    64
  0
VERTEX
  8
BODY
 10
17.491918
 20
0.575579
 30
0.657889
 70
    64
  0
VERTEX
  8
BODY
 10
17.422209
 20
0.542076
 30
0.753835
 70
    64
  0
VERTEX
  8
BODY
 10
17.349895
 20
0.534904
 30
0.853367
 70
    64
  0
VERTEX
  8
BODY
 10
17.525655
 20
0.924836
 30
0.312433
 70
    64
  0
VERTEX
  8
BODY
 10
17.509881
 20
0.812668
 30
0.36098
 70
    64
  0
VERTEX
  8
BODY
 10
17.487011
 20
0.714128
 30
0.431367
 70
    64
  0
VERTEX
  8
BODY
 10
17.458119
 20
0.633842
 30
0.520288
 70
    64
  0
VERTEX
  8
BODY
 10
17.424561
 20
0.575579
 30
0.623568
 70
    64
  0
VERTEX
  8
BODY
 10
17.387913
 20
0.542076
 30
0.73636
 70
    64
  0
VERTEX
  8
BODY
 10
17.349895
 20
0.534904
 30
0.853367
 70
    64
  0
VERTEX
  8
BODY
 10
17.349895
 20
0.924836
 30
0.284595
 70
    64
  0
VERTEX
  8
BODY
 10
17.349895
 20
0.812668
 30
0.335641
 70
    64
  0
VERTEX
  8
BODY
 10
17.349895
 20
0.714128
 30
0.40965
 70
    64
  0
VERTEX
  8
BODY
 10
17.349895
 20
0.633842
 30
0.503147
 70
    64
  0
VERTEX
  8
BODY
 10
17.349895
 20
0.575579
 30
0.611742
 70
    64
  0
VERTEX
  8
BODY
 10
17.349895
 20
0.542076
 30
0.730338
 70
    64
  0
VERTEX
  8
BODY
 10
17.349895
 20
0.534904
 30
0.853367
 70
    64
  0
VERTEX
  8
BODY
 10
17.174134
 20
0.924836
 30
0.312433
 70
    64
  0
VERTEX
  8
BODY
 10
17.189909
 20
0.812668
 30
0.36098
 70
    64
  0
VERTEX
  8
BODY
 10
17.212778
 20
0.714128
 30
0.431367
 70
    64
  0
VERTEX
  8
BODY
 10
17.241671
 20
0.633842
 30
0.520288
 70
    64
  0
VERTEX
  8
BODY
 10
17.275228
 20
0.575579
 30
0.623568
 70
    64
  0
VERTEX
  8
BODY
 10
17.311877
 20
0.542076
 30
0.73636
 70
    64
  0
VERTEX
  8
BODY
 10
17.349895
 20
0.534904
 30
0.853367
 70
    64
  0
VERTEX
  8
BODY
 10
17.015579
 20
0.924836
 30
0.393221
 70
    64
  0
VERTEX
  8
BODY
 10
17.045583
 20
0.812668
 30
0.434518
 70
    64
  0
VERTEX
  8
BODY
 10
17.089084
 20
0.714128
 30
0.494392
 70
    64
  0
VERTEX
  8
BODY
 10
17.14404
 20
0.633842
 30
0.570033
 70
    64
  0
VERTEX
  8
BODY
 10
17.207871
 20
0.575579
 30
0.657889
 70
    64
  0
VERTEX
  8
BODY
 10
17.27758
 20
0.542076
 30
0.753835
 70
    64
  0
VERTEX
  8
BODY
 10
17.349895
 20
0.534904
 30
0.853367
 70
    64
  0
VERTEX
  8
BODY
 10
16.889748
 20
0.924836
 30
0.519051
 70
    64
  0
VERTEX
  8
BODY
 10
16.931046
 20
0.812668
 30
0.549055
 70
    64
  0
VERTEX
  8
BODY
 10
16.99092
 20
0.714128
 30
0.592557
 70
    64
  0
VERTEX
  8
BODY
 10
17.06656
 20
0.633842
 30
0.647513
 70
    64
  0
VERTEX
  8
BODY
 10
17.154416
 20
0.575579
 30
0.711344
 70
    64
  0
VERTEX
  8
BODY
 10
17.250362
 20
0.542076
 30
0.781053
 70
    64
  0
VERTEX
  8
BODY
 10
17.349895
 20
0.534904
 30
0.853367
 70
    64
  0
VERTEX
  8
BODY
 10
16.80896
 20
0.924836
 30
0.677607
 70
    64
  0
VERTEX
  8
BODY
 10
16.857508
 20
0.812668
 30
0.693381
 70
    64
  0
VERTEX
  8
BODY
 10
16.927895
 20
0.714128
 30
0.716251
 70
    64
  0
VERTEX
  8
BODY
 10
17.016815
 20
0.633842
 30
0.745143
 70
    64
  0
VERTEX
  8
BODY
 10
17.120096
 20
0.575579
 30
0.778701
 70
    64
  0
VERTEX
  8
BODY
 10
17.232887
 20
0.542076
 30
0.815349
 70
    64
  0
VERTEX
  8
BODY
 10
17.349895
 20
0.534904
 30
0.853367
 70
    64
  0
VERTEX
  8
BODY
 10
16.781123
 20
0.924836
 30
0.853367
 70
    64
  0
VERTEX
  8
BODY
 10
16.832169
 20
0.812668
 30
0.853367
 70
    64
  0
VERTEX
  8
BODY
 10
16.906178
 20
0.714128
 30
0.853367
 70
    64
  0
VERTEX
  8
BODY
 10
16.999674
 20
0.633842
 30
0.853367
 70
    64
  0
VERTEX
  8
BODY
 10
17.10827
 20
0.575579
 30
0.853367
 70
    64
  0
VERTEX
  8
BODY
 10
17.226866
 20
0.542076
 30
0.853367
 70
    64
  0
VERTEX
  8
BODY
 10
17.349895
 20
0.534904
 30
0.853367
 70
    64
  0
VERTEX
  8
BODY
 10
16.80896
 20
0.924836
 30
1.029127
 70
    64
  0
VERTEX
  8
BODY
 10
16.857508
 20
0.812668
 30
1.013353
 70
    64
  0
VERTEX
  8
BODY
 10
16.927895
 20
0.714128
 30
0.990483
 70
    64
  0
VERTEX
  8
BODY
 10
17.016815
 20
0.633842
 30
0.961591
 70
    64
  0
VERTEX
  8
BODY
 10
17.120096
 20
0.575579
 30
0.928033
 70
    64
  0
VERTEX
  8
BODY
 10
17.232887
 20
0.542076
 30
0.891385
 70
    64
  0
VERTEX
  8
BODY
 10
17.349895
 20
0.534904
 30
0.853367
 70
    64
  0
VERTEX
  8
BODY
 10
16.889748
 20
0.924836
 30
1.187683
 70
    64
  0
VERTEX
  8
BODY
 10
16.931046
 20
0.812668
 30
1.157679
 70
    64
  0
VERTEX
  8
BODY
 10
16.99092
 20
0.714128
 30
1.114177
 70
    64
  0
VERTEX
  8
BODY
 10
17.06656
 20
0.633842
 30
1.059221
 70
    64
  0
VERTEX
  8
BODY
 10
17.154416
 20
0.575579
 30
0.99539
 70
    64
  0
VERTEX
  8
BODY
 10
17.250362
 20
0.542076
 30
0.925681
 70
    64
  0
VERTEX
  8
BODY
 10
17.349895
 20
0.534904
 30
0.853367
 70
    64
  0
VERTEX
  8
BODY
 10
17.015579
 20
0.924836
 30
1.313513
 70
    64
  0
VERTEX
  8
BODY
 10
17.045583
 20
0.812668
 30
1.272216
 70
    64
  0
VERTEX
  8
BODY
 10
17.089084
 20
0.714128
 30
1.212342
 70
    64
  0
VERTEX
  8
BODY
 10
17.14404
 20
0.633842
 30
1.136701
 70
    64
  0
VERTEX
  8
BODY
 10
17.207871
 20
0.575579
 30
1.048845
 70
    64
  0
VERTEX
  8
BODY
 10
17.27758
 20
0.542076
 30
0.952899
 70
    64
  0
VERTEX
  8
BODY
 10
17.349895
 20
0.534904
 30
0.853367
 70
    64
  0
VERTEX
  8
BODY
 10
17.174134
 20
0.924836
 30
1.394301
 70
    64
  0
VERTEX
  8
BODY
 10
17.189909
 20
0.812668
 30
1.345754
 70
    64
  0
VERTEX
  8
BODY
 10
17.212778
 20
0.714128
 30
1.275367
 70
    64
  0
VERTEX
  8
BODY
 10
17.241671
 20
0.633842
 30
1.186446
 70
    64
  0
VERTEX
  8
BODY
 10
17.275228
 20
0.575579
 30
1.083166
 70
    64
  0
VERTEX
  8
BODY
 10
17.311877
 20
0.542076
 30
0.970374
 70
    64
  0
VERTEX
  8
BODY
 10
17.349895
 20
0.534904
 30
0.853367
 70
    64
  0
SEQEND
  8
BODY
  0
INSERT
  8
0
 62
     1
  2
HALF-PLANE
 10
17.349895
 20
1.924836
 30
0.0
 41
-1.0
  0
INSERT
  8
0
 62
     1
  2
HALF-PLANE
 10
17.349895
 20
1.924836
 30
0.0
  0
ENDSEC
  0
EOF
